<mxfile host="app.diagrams.net" agent="Mozilla/5.0 (Windows NT 10.0; Win64; x64) AppleWebKit/537.36 (KHTML, like Gecko) Chrome/132.0.0.0 Safari/537.36" version="26.0.14" pages="4">
  <diagram name="Sơ đồ quan hệ" id="jdhajBPc8DlmA9IMdlyx">
    <mxGraphModel grid="1" page="1" gridSize="10" guides="1" tooltips="1" connect="1" arrows="1" fold="1" pageScale="1" pageWidth="827" pageHeight="1169" math="0" shadow="0">
      <root>
        <mxCell id="0" />
        <mxCell id="1" parent="0" />
        <mxCell id="s9ClLIuxdjHM1Dz8LOJ4-81" value="NhanVien" style="shape=table;startSize=30;container=1;collapsible=1;childLayout=tableLayout;fixedRows=1;rowLines=0;fontStyle=1;align=center;resizeLast=1;html=1;fontSize=16;" vertex="1" parent="1">
          <mxGeometry x="620" y="910" width="180" height="120" as="geometry" />
        </mxCell>
        <mxCell id="s9ClLIuxdjHM1Dz8LOJ4-82" value="" style="shape=tableRow;horizontal=0;startSize=0;swimlaneHead=0;swimlaneBody=0;fillColor=none;collapsible=0;dropTarget=0;points=[[0,0.5],[1,0.5]];portConstraint=eastwest;top=0;left=0;right=0;bottom=1;fontSize=16;" vertex="1" parent="s9ClLIuxdjHM1Dz8LOJ4-81">
          <mxGeometry y="30" width="180" height="30" as="geometry" />
        </mxCell>
        <mxCell id="s9ClLIuxdjHM1Dz8LOJ4-83" value="PK" style="shape=partialRectangle;connectable=0;fillColor=none;top=0;left=0;bottom=0;right=0;fontStyle=1;overflow=hidden;whiteSpace=wrap;html=1;fontSize=16;" vertex="1" parent="s9ClLIuxdjHM1Dz8LOJ4-82">
          <mxGeometry width="30" height="30" as="geometry">
            <mxRectangle width="30" height="30" as="alternateBounds" />
          </mxGeometry>
        </mxCell>
        <mxCell id="s9ClLIuxdjHM1Dz8LOJ4-84" value="Ma_NhanVien" style="shape=partialRectangle;connectable=0;fillColor=none;top=0;left=0;bottom=0;right=0;align=left;spacingLeft=6;fontStyle=5;overflow=hidden;whiteSpace=wrap;html=1;fontSize=16;" vertex="1" parent="s9ClLIuxdjHM1Dz8LOJ4-82">
          <mxGeometry x="30" width="150" height="30" as="geometry">
            <mxRectangle width="150" height="30" as="alternateBounds" />
          </mxGeometry>
        </mxCell>
        <mxCell id="s9ClLIuxdjHM1Dz8LOJ4-85" value="" style="shape=tableRow;horizontal=0;startSize=0;swimlaneHead=0;swimlaneBody=0;fillColor=none;collapsible=0;dropTarget=0;points=[[0,0.5],[1,0.5]];portConstraint=eastwest;top=0;left=0;right=0;bottom=0;fontSize=16;" vertex="1" parent="s9ClLIuxdjHM1Dz8LOJ4-81">
          <mxGeometry y="60" width="180" height="30" as="geometry" />
        </mxCell>
        <mxCell id="s9ClLIuxdjHM1Dz8LOJ4-86" value="" style="shape=partialRectangle;connectable=0;fillColor=none;top=0;left=0;bottom=0;right=0;editable=1;overflow=hidden;whiteSpace=wrap;html=1;fontSize=16;" vertex="1" parent="s9ClLIuxdjHM1Dz8LOJ4-85">
          <mxGeometry width="30" height="30" as="geometry">
            <mxRectangle width="30" height="30" as="alternateBounds" />
          </mxGeometry>
        </mxCell>
        <mxCell id="s9ClLIuxdjHM1Dz8LOJ4-87" value="Ten_NhanVien" style="shape=partialRectangle;connectable=0;fillColor=none;top=0;left=0;bottom=0;right=0;align=left;spacingLeft=6;overflow=hidden;whiteSpace=wrap;html=1;fontSize=16;" vertex="1" parent="s9ClLIuxdjHM1Dz8LOJ4-85">
          <mxGeometry x="30" width="150" height="30" as="geometry">
            <mxRectangle width="150" height="30" as="alternateBounds" />
          </mxGeometry>
        </mxCell>
        <mxCell id="UGKv_VSdxesSdC79pI0j-1" value="" style="shape=tableRow;horizontal=0;startSize=0;swimlaneHead=0;swimlaneBody=0;fillColor=none;collapsible=0;dropTarget=0;points=[[0,0.5],[1,0.5]];portConstraint=eastwest;top=0;left=0;right=0;bottom=0;fontSize=16;" vertex="1" parent="s9ClLIuxdjHM1Dz8LOJ4-81">
          <mxGeometry y="90" width="180" height="30" as="geometry" />
        </mxCell>
        <mxCell id="UGKv_VSdxesSdC79pI0j-2" value="" style="shape=partialRectangle;connectable=0;fillColor=none;top=0;left=0;bottom=0;right=0;editable=1;overflow=hidden;whiteSpace=wrap;html=1;fontSize=16;" vertex="1" parent="UGKv_VSdxesSdC79pI0j-1">
          <mxGeometry width="30" height="30" as="geometry">
            <mxRectangle width="30" height="30" as="alternateBounds" />
          </mxGeometry>
        </mxCell>
        <mxCell id="UGKv_VSdxesSdC79pI0j-3" value="SDT_NV" style="shape=partialRectangle;connectable=0;fillColor=none;top=0;left=0;bottom=0;right=0;align=left;spacingLeft=6;overflow=hidden;whiteSpace=wrap;html=1;fontSize=16;" vertex="1" parent="UGKv_VSdxesSdC79pI0j-1">
          <mxGeometry x="30" width="150" height="30" as="geometry">
            <mxRectangle width="150" height="30" as="alternateBounds" />
          </mxGeometry>
        </mxCell>
        <mxCell id="s9ClLIuxdjHM1Dz8LOJ4-150" value="BanHang" style="shape=table;startSize=30;container=1;collapsible=1;childLayout=tableLayout;fixedRows=1;rowLines=0;fontStyle=1;align=center;resizeLast=1;html=1;fontSize=16;" vertex="1" parent="1">
          <mxGeometry x="920" y="750" width="210" height="180" as="geometry" />
        </mxCell>
        <mxCell id="s9ClLIuxdjHM1Dz8LOJ4-151" value="" style="shape=tableRow;horizontal=0;startSize=0;swimlaneHead=0;swimlaneBody=0;fillColor=none;collapsible=0;dropTarget=0;points=[[0,0.5],[1,0.5]];portConstraint=eastwest;top=0;left=0;right=0;bottom=1;fontSize=16;" vertex="1" parent="s9ClLIuxdjHM1Dz8LOJ4-150">
          <mxGeometry y="30" width="210" height="30" as="geometry" />
        </mxCell>
        <mxCell id="s9ClLIuxdjHM1Dz8LOJ4-152" value="PK" style="shape=partialRectangle;connectable=0;fillColor=none;top=0;left=0;bottom=0;right=0;fontStyle=1;overflow=hidden;whiteSpace=wrap;html=1;fontSize=16;" vertex="1" parent="s9ClLIuxdjHM1Dz8LOJ4-151">
          <mxGeometry width="30" height="30" as="geometry">
            <mxRectangle width="30" height="30" as="alternateBounds" />
          </mxGeometry>
        </mxCell>
        <mxCell id="s9ClLIuxdjHM1Dz8LOJ4-153" value="Ma_HD_BanHang" style="shape=partialRectangle;connectable=0;fillColor=none;top=0;left=0;bottom=0;right=0;align=left;spacingLeft=6;fontStyle=5;overflow=hidden;whiteSpace=wrap;html=1;fontSize=16;" vertex="1" parent="s9ClLIuxdjHM1Dz8LOJ4-151">
          <mxGeometry x="30" width="180" height="30" as="geometry">
            <mxRectangle width="180" height="30" as="alternateBounds" />
          </mxGeometry>
        </mxCell>
        <mxCell id="s9ClLIuxdjHM1Dz8LOJ4-154" value="" style="shape=tableRow;horizontal=0;startSize=0;swimlaneHead=0;swimlaneBody=0;fillColor=none;collapsible=0;dropTarget=0;points=[[0,0.5],[1,0.5]];portConstraint=eastwest;top=0;left=0;right=0;bottom=0;fontSize=16;" vertex="1" parent="s9ClLIuxdjHM1Dz8LOJ4-150">
          <mxGeometry y="60" width="210" height="30" as="geometry" />
        </mxCell>
        <mxCell id="s9ClLIuxdjHM1Dz8LOJ4-155" value="" style="shape=partialRectangle;connectable=0;fillColor=none;top=0;left=0;bottom=0;right=0;editable=1;overflow=hidden;whiteSpace=wrap;html=1;fontSize=16;" vertex="1" parent="s9ClLIuxdjHM1Dz8LOJ4-154">
          <mxGeometry width="30" height="30" as="geometry">
            <mxRectangle width="30" height="30" as="alternateBounds" />
          </mxGeometry>
        </mxCell>
        <mxCell id="s9ClLIuxdjHM1Dz8LOJ4-156" value="NgayThanhToan" style="shape=partialRectangle;connectable=0;fillColor=none;top=0;left=0;bottom=0;right=0;align=left;spacingLeft=6;overflow=hidden;whiteSpace=wrap;html=1;fontSize=16;" vertex="1" parent="s9ClLIuxdjHM1Dz8LOJ4-154">
          <mxGeometry x="30" width="180" height="30" as="geometry">
            <mxRectangle width="180" height="30" as="alternateBounds" />
          </mxGeometry>
        </mxCell>
        <mxCell id="s9ClLIuxdjHM1Dz8LOJ4-157" value="" style="shape=tableRow;horizontal=0;startSize=0;swimlaneHead=0;swimlaneBody=0;fillColor=none;collapsible=0;dropTarget=0;points=[[0,0.5],[1,0.5]];portConstraint=eastwest;top=0;left=0;right=0;bottom=0;fontSize=16;" vertex="1" parent="s9ClLIuxdjHM1Dz8LOJ4-150">
          <mxGeometry y="90" width="210" height="30" as="geometry" />
        </mxCell>
        <mxCell id="s9ClLIuxdjHM1Dz8LOJ4-158" value="" style="shape=partialRectangle;connectable=0;fillColor=none;top=0;left=0;bottom=0;right=0;editable=1;overflow=hidden;whiteSpace=wrap;html=1;fontSize=16;" vertex="1" parent="s9ClLIuxdjHM1Dz8LOJ4-157">
          <mxGeometry width="30" height="30" as="geometry">
            <mxRectangle width="30" height="30" as="alternateBounds" />
          </mxGeometry>
        </mxCell>
        <mxCell id="s9ClLIuxdjHM1Dz8LOJ4-159" value="PhuongThucThanhToan" style="shape=partialRectangle;connectable=0;fillColor=none;top=0;left=0;bottom=0;right=0;align=left;spacingLeft=6;overflow=hidden;whiteSpace=wrap;html=1;fontSize=16;" vertex="1" parent="s9ClLIuxdjHM1Dz8LOJ4-157">
          <mxGeometry x="30" width="180" height="30" as="geometry">
            <mxRectangle width="180" height="30" as="alternateBounds" />
          </mxGeometry>
        </mxCell>
        <mxCell id="s9ClLIuxdjHM1Dz8LOJ4-199" style="shape=tableRow;horizontal=0;startSize=0;swimlaneHead=0;swimlaneBody=0;fillColor=none;collapsible=0;dropTarget=0;points=[[0,0.5],[1,0.5]];portConstraint=eastwest;top=0;left=0;right=0;bottom=0;fontSize=16;" vertex="1" parent="s9ClLIuxdjHM1Dz8LOJ4-150">
          <mxGeometry y="120" width="210" height="30" as="geometry" />
        </mxCell>
        <mxCell id="s9ClLIuxdjHM1Dz8LOJ4-200" value="" style="shape=partialRectangle;connectable=0;fillColor=none;top=0;left=0;bottom=0;right=0;editable=1;overflow=hidden;whiteSpace=wrap;html=1;fontSize=16;" vertex="1" parent="s9ClLIuxdjHM1Dz8LOJ4-199">
          <mxGeometry width="30" height="30" as="geometry">
            <mxRectangle width="30" height="30" as="alternateBounds" />
          </mxGeometry>
        </mxCell>
        <mxCell id="s9ClLIuxdjHM1Dz8LOJ4-201" value="So_Ban" style="shape=partialRectangle;connectable=0;fillColor=none;top=0;left=0;bottom=0;right=0;align=left;spacingLeft=6;overflow=hidden;whiteSpace=wrap;html=1;fontSize=16;" vertex="1" parent="s9ClLIuxdjHM1Dz8LOJ4-199">
          <mxGeometry x="30" width="180" height="30" as="geometry">
            <mxRectangle width="180" height="30" as="alternateBounds" />
          </mxGeometry>
        </mxCell>
        <mxCell id="s9ClLIuxdjHM1Dz8LOJ4-205" style="shape=tableRow;horizontal=0;startSize=0;swimlaneHead=0;swimlaneBody=0;fillColor=none;collapsible=0;dropTarget=0;points=[[0,0.5],[1,0.5]];portConstraint=eastwest;top=0;left=0;right=0;bottom=0;fontSize=16;" vertex="1" parent="s9ClLIuxdjHM1Dz8LOJ4-150">
          <mxGeometry y="150" width="210" height="30" as="geometry" />
        </mxCell>
        <mxCell id="s9ClLIuxdjHM1Dz8LOJ4-206" value="" style="shape=partialRectangle;connectable=0;fillColor=none;top=0;left=0;bottom=0;right=0;editable=1;overflow=hidden;whiteSpace=wrap;html=1;fontSize=16;" vertex="1" parent="s9ClLIuxdjHM1Dz8LOJ4-205">
          <mxGeometry width="30" height="30" as="geometry">
            <mxRectangle width="30" height="30" as="alternateBounds" />
          </mxGeometry>
        </mxCell>
        <mxCell id="s9ClLIuxdjHM1Dz8LOJ4-207" value="Ma_NhanVien" style="shape=partialRectangle;connectable=0;fillColor=none;top=0;left=0;bottom=0;right=0;align=left;spacingLeft=6;overflow=hidden;whiteSpace=wrap;html=1;fontSize=16;" vertex="1" parent="s9ClLIuxdjHM1Dz8LOJ4-205">
          <mxGeometry x="30" width="180" height="30" as="geometry">
            <mxRectangle width="180" height="30" as="alternateBounds" />
          </mxGeometry>
        </mxCell>
        <mxCell id="s9ClLIuxdjHM1Dz8LOJ4-166" value="MonNuoc" style="shape=table;startSize=30;container=1;collapsible=1;childLayout=tableLayout;fixedRows=1;rowLines=0;fontStyle=1;align=center;resizeLast=1;html=1;fontSize=16;" vertex="1" parent="1">
          <mxGeometry x="1460" y="750" width="180" height="120" as="geometry" />
        </mxCell>
        <mxCell id="s9ClLIuxdjHM1Dz8LOJ4-167" value="" style="shape=tableRow;horizontal=0;startSize=0;swimlaneHead=0;swimlaneBody=0;fillColor=none;collapsible=0;dropTarget=0;points=[[0,0.5],[1,0.5]];portConstraint=eastwest;top=0;left=0;right=0;bottom=1;fontSize=16;" vertex="1" parent="s9ClLIuxdjHM1Dz8LOJ4-166">
          <mxGeometry y="30" width="180" height="30" as="geometry" />
        </mxCell>
        <mxCell id="s9ClLIuxdjHM1Dz8LOJ4-168" value="PK" style="shape=partialRectangle;connectable=0;fillColor=none;top=0;left=0;bottom=0;right=0;fontStyle=1;overflow=hidden;whiteSpace=wrap;html=1;fontSize=16;" vertex="1" parent="s9ClLIuxdjHM1Dz8LOJ4-167">
          <mxGeometry width="30" height="30" as="geometry">
            <mxRectangle width="30" height="30" as="alternateBounds" />
          </mxGeometry>
        </mxCell>
        <mxCell id="s9ClLIuxdjHM1Dz8LOJ4-169" value="Ma_Mon" style="shape=partialRectangle;connectable=0;fillColor=none;top=0;left=0;bottom=0;right=0;align=left;spacingLeft=6;fontStyle=5;overflow=hidden;whiteSpace=wrap;html=1;fontSize=16;" vertex="1" parent="s9ClLIuxdjHM1Dz8LOJ4-167">
          <mxGeometry x="30" width="150" height="30" as="geometry">
            <mxRectangle width="150" height="30" as="alternateBounds" />
          </mxGeometry>
        </mxCell>
        <mxCell id="s9ClLIuxdjHM1Dz8LOJ4-170" value="" style="shape=tableRow;horizontal=0;startSize=0;swimlaneHead=0;swimlaneBody=0;fillColor=none;collapsible=0;dropTarget=0;points=[[0,0.5],[1,0.5]];portConstraint=eastwest;top=0;left=0;right=0;bottom=0;fontSize=16;" vertex="1" parent="s9ClLIuxdjHM1Dz8LOJ4-166">
          <mxGeometry y="60" width="180" height="30" as="geometry" />
        </mxCell>
        <mxCell id="s9ClLIuxdjHM1Dz8LOJ4-171" value="" style="shape=partialRectangle;connectable=0;fillColor=none;top=0;left=0;bottom=0;right=0;editable=1;overflow=hidden;whiteSpace=wrap;html=1;fontSize=16;" vertex="1" parent="s9ClLIuxdjHM1Dz8LOJ4-170">
          <mxGeometry width="30" height="30" as="geometry">
            <mxRectangle width="30" height="30" as="alternateBounds" />
          </mxGeometry>
        </mxCell>
        <mxCell id="s9ClLIuxdjHM1Dz8LOJ4-172" value="Ten_Mon" style="shape=partialRectangle;connectable=0;fillColor=none;top=0;left=0;bottom=0;right=0;align=left;spacingLeft=6;overflow=hidden;whiteSpace=wrap;html=1;fontSize=16;" vertex="1" parent="s9ClLIuxdjHM1Dz8LOJ4-170">
          <mxGeometry x="30" width="150" height="30" as="geometry">
            <mxRectangle width="150" height="30" as="alternateBounds" />
          </mxGeometry>
        </mxCell>
        <mxCell id="s9ClLIuxdjHM1Dz8LOJ4-173" value="" style="shape=tableRow;horizontal=0;startSize=0;swimlaneHead=0;swimlaneBody=0;fillColor=none;collapsible=0;dropTarget=0;points=[[0,0.5],[1,0.5]];portConstraint=eastwest;top=0;left=0;right=0;bottom=0;fontSize=16;" vertex="1" parent="s9ClLIuxdjHM1Dz8LOJ4-166">
          <mxGeometry y="90" width="180" height="30" as="geometry" />
        </mxCell>
        <mxCell id="s9ClLIuxdjHM1Dz8LOJ4-174" value="" style="shape=partialRectangle;connectable=0;fillColor=none;top=0;left=0;bottom=0;right=0;editable=1;overflow=hidden;whiteSpace=wrap;html=1;fontSize=16;" vertex="1" parent="s9ClLIuxdjHM1Dz8LOJ4-173">
          <mxGeometry width="30" height="30" as="geometry">
            <mxRectangle width="30" height="30" as="alternateBounds" />
          </mxGeometry>
        </mxCell>
        <mxCell id="s9ClLIuxdjHM1Dz8LOJ4-175" value="DonGia" style="shape=partialRectangle;connectable=0;fillColor=none;top=0;left=0;bottom=0;right=0;align=left;spacingLeft=6;overflow=hidden;whiteSpace=wrap;html=1;fontSize=16;" vertex="1" parent="s9ClLIuxdjHM1Dz8LOJ4-173">
          <mxGeometry x="30" width="150" height="30" as="geometry">
            <mxRectangle width="150" height="30" as="alternateBounds" />
          </mxGeometry>
        </mxCell>
        <mxCell id="s9ClLIuxdjHM1Dz8LOJ4-182" value="BanHang_CT" style="shape=table;startSize=30;container=1;collapsible=1;childLayout=tableLayout;fixedRows=1;rowLines=0;fontStyle=1;align=center;resizeLast=1;html=1;fontSize=16;" vertex="1" parent="1">
          <mxGeometry x="1210" y="780" width="180" height="120" as="geometry" />
        </mxCell>
        <mxCell id="s9ClLIuxdjHM1Dz8LOJ4-183" value="" style="shape=tableRow;horizontal=0;startSize=0;swimlaneHead=0;swimlaneBody=0;fillColor=none;collapsible=0;dropTarget=0;points=[[0,0.5],[1,0.5]];portConstraint=eastwest;top=0;left=0;right=0;bottom=1;fontSize=16;" vertex="1" parent="s9ClLIuxdjHM1Dz8LOJ4-182">
          <mxGeometry y="30" width="180" height="30" as="geometry" />
        </mxCell>
        <mxCell id="s9ClLIuxdjHM1Dz8LOJ4-184" value="PK" style="shape=partialRectangle;connectable=0;fillColor=none;top=0;left=0;bottom=0;right=0;fontStyle=1;overflow=hidden;whiteSpace=wrap;html=1;fontSize=16;" vertex="1" parent="s9ClLIuxdjHM1Dz8LOJ4-183">
          <mxGeometry width="30" height="30" as="geometry">
            <mxRectangle width="30" height="30" as="alternateBounds" />
          </mxGeometry>
        </mxCell>
        <mxCell id="s9ClLIuxdjHM1Dz8LOJ4-185" value="Ma_HD_BanHang" style="shape=partialRectangle;connectable=0;fillColor=none;top=0;left=0;bottom=0;right=0;align=left;spacingLeft=6;fontStyle=5;overflow=hidden;whiteSpace=wrap;html=1;fontSize=16;" vertex="1" parent="s9ClLIuxdjHM1Dz8LOJ4-183">
          <mxGeometry x="30" width="150" height="30" as="geometry">
            <mxRectangle width="150" height="30" as="alternateBounds" />
          </mxGeometry>
        </mxCell>
        <mxCell id="s9ClLIuxdjHM1Dz8LOJ4-186" value="" style="shape=tableRow;horizontal=0;startSize=0;swimlaneHead=0;swimlaneBody=0;fillColor=none;collapsible=0;dropTarget=0;points=[[0,0.5],[1,0.5]];portConstraint=eastwest;top=0;left=0;right=0;bottom=0;fontSize=16;" vertex="1" parent="s9ClLIuxdjHM1Dz8LOJ4-182">
          <mxGeometry y="60" width="180" height="30" as="geometry" />
        </mxCell>
        <mxCell id="s9ClLIuxdjHM1Dz8LOJ4-187" value="&lt;b style=&quot;font-size: 16px;&quot;&gt;PK&lt;/b&gt;" style="shape=partialRectangle;connectable=0;fillColor=none;top=0;left=0;bottom=0;right=0;editable=1;overflow=hidden;whiteSpace=wrap;html=1;fontSize=16;" vertex="1" parent="s9ClLIuxdjHM1Dz8LOJ4-186">
          <mxGeometry width="30" height="30" as="geometry">
            <mxRectangle width="30" height="30" as="alternateBounds" />
          </mxGeometry>
        </mxCell>
        <mxCell id="s9ClLIuxdjHM1Dz8LOJ4-188" value="&lt;b style=&quot;font-size: 16px;&quot;&gt;&lt;u style=&quot;font-size: 16px;&quot;&gt;Ma_Mon&lt;/u&gt;&lt;/b&gt;" style="shape=partialRectangle;connectable=0;fillColor=none;top=0;left=0;bottom=0;right=0;align=left;spacingLeft=6;overflow=hidden;whiteSpace=wrap;html=1;fontSize=16;" vertex="1" parent="s9ClLIuxdjHM1Dz8LOJ4-186">
          <mxGeometry x="30" width="150" height="30" as="geometry">
            <mxRectangle width="150" height="30" as="alternateBounds" />
          </mxGeometry>
        </mxCell>
        <mxCell id="rjlsqOC13iRwdC6T-3i0-14" value="" style="shape=tableRow;horizontal=0;startSize=0;swimlaneHead=0;swimlaneBody=0;fillColor=none;collapsible=0;dropTarget=0;points=[[0,0.5],[1,0.5]];portConstraint=eastwest;top=0;left=0;right=0;bottom=0;fontSize=16;" vertex="1" parent="s9ClLIuxdjHM1Dz8LOJ4-182">
          <mxGeometry y="90" width="180" height="30" as="geometry" />
        </mxCell>
        <mxCell id="rjlsqOC13iRwdC6T-3i0-15" value="" style="shape=partialRectangle;connectable=0;fillColor=none;top=0;left=0;bottom=0;right=0;editable=1;overflow=hidden;whiteSpace=wrap;html=1;fontSize=16;" vertex="1" parent="rjlsqOC13iRwdC6T-3i0-14">
          <mxGeometry width="30" height="30" as="geometry">
            <mxRectangle width="30" height="30" as="alternateBounds" />
          </mxGeometry>
        </mxCell>
        <mxCell id="rjlsqOC13iRwdC6T-3i0-16" value="&lt;span style=&quot;font-size: 16px;&quot;&gt;&lt;span style=&quot;font-size: 16px;&quot;&gt;SoLuong&lt;/span&gt;&lt;/span&gt;" style="shape=partialRectangle;connectable=0;fillColor=none;top=0;left=0;bottom=0;right=0;align=left;spacingLeft=6;overflow=hidden;whiteSpace=wrap;html=1;fontSize=16;" vertex="1" parent="rjlsqOC13iRwdC6T-3i0-14">
          <mxGeometry x="30" width="150" height="30" as="geometry">
            <mxRectangle width="150" height="30" as="alternateBounds" />
          </mxGeometry>
        </mxCell>
        <mxCell id="s9ClLIuxdjHM1Dz8LOJ4-208" value="" style="edgeStyle=entityRelationEdgeStyle;fontSize=16;html=1;endArrow=ERoneToMany;startArrow=ERmandOne;rounded=0;entryX=0;entryY=0.5;entryDx=0;entryDy=0;exitX=1;exitY=0.5;exitDx=0;exitDy=0;" edge="1" parent="1" source="s9ClLIuxdjHM1Dz8LOJ4-151" target="s9ClLIuxdjHM1Dz8LOJ4-186">
          <mxGeometry width="100" height="100" relative="1" as="geometry">
            <mxPoint x="1030" y="1020" as="sourcePoint" />
            <mxPoint x="1190" y="920" as="targetPoint" />
          </mxGeometry>
        </mxCell>
        <mxCell id="s9ClLIuxdjHM1Dz8LOJ4-229" value="" style="edgeStyle=entityRelationEdgeStyle;fontSize=16;html=1;endArrow=ERzeroToMany;startArrow=ERmandOne;rounded=0;exitX=1;exitY=0.5;exitDx=0;exitDy=0;entryX=0;entryY=0.5;entryDx=0;entryDy=0;" edge="1" parent="1" source="s9ClLIuxdjHM1Dz8LOJ4-82">
          <mxGeometry width="100" height="100" relative="1" as="geometry">
            <mxPoint x="900" y="900" as="sourcePoint" />
            <mxPoint x="920" y="885" as="targetPoint" />
          </mxGeometry>
        </mxCell>
        <mxCell id="Zkk-tBcWQcPe5gxD8Fpe-1" value="Nhap" style="shape=table;startSize=30;container=1;collapsible=1;childLayout=tableLayout;fixedRows=1;rowLines=0;fontStyle=1;align=center;resizeLast=1;html=1;fontSize=16;" vertex="1" parent="1">
          <mxGeometry x="520" y="495" width="180" height="180" as="geometry" />
        </mxCell>
        <mxCell id="Zkk-tBcWQcPe5gxD8Fpe-2" value="" style="shape=tableRow;horizontal=0;startSize=0;swimlaneHead=0;swimlaneBody=0;fillColor=none;collapsible=0;dropTarget=0;points=[[0,0.5],[1,0.5]];portConstraint=eastwest;top=0;left=0;right=0;bottom=1;fontSize=16;" vertex="1" parent="Zkk-tBcWQcPe5gxD8Fpe-1">
          <mxGeometry y="30" width="180" height="30" as="geometry" />
        </mxCell>
        <mxCell id="Zkk-tBcWQcPe5gxD8Fpe-3" value="PK" style="shape=partialRectangle;connectable=0;fillColor=none;top=0;left=0;bottom=0;right=0;fontStyle=1;overflow=hidden;whiteSpace=wrap;html=1;fontSize=16;" vertex="1" parent="Zkk-tBcWQcPe5gxD8Fpe-2">
          <mxGeometry width="30" height="30" as="geometry">
            <mxRectangle width="30" height="30" as="alternateBounds" />
          </mxGeometry>
        </mxCell>
        <mxCell id="Zkk-tBcWQcPe5gxD8Fpe-4" value="Ma_HD_Nhap" style="shape=partialRectangle;connectable=0;fillColor=none;top=0;left=0;bottom=0;right=0;align=left;spacingLeft=6;fontStyle=5;overflow=hidden;whiteSpace=wrap;html=1;fontSize=16;" vertex="1" parent="Zkk-tBcWQcPe5gxD8Fpe-2">
          <mxGeometry x="30" width="150" height="30" as="geometry">
            <mxRectangle width="150" height="30" as="alternateBounds" />
          </mxGeometry>
        </mxCell>
        <mxCell id="Zkk-tBcWQcPe5gxD8Fpe-5" value="" style="shape=tableRow;horizontal=0;startSize=0;swimlaneHead=0;swimlaneBody=0;fillColor=none;collapsible=0;dropTarget=0;points=[[0,0.5],[1,0.5]];portConstraint=eastwest;top=0;left=0;right=0;bottom=0;fontSize=16;" vertex="1" parent="Zkk-tBcWQcPe5gxD8Fpe-1">
          <mxGeometry y="60" width="180" height="30" as="geometry" />
        </mxCell>
        <mxCell id="Zkk-tBcWQcPe5gxD8Fpe-6" value="" style="shape=partialRectangle;connectable=0;fillColor=none;top=0;left=0;bottom=0;right=0;editable=1;overflow=hidden;whiteSpace=wrap;html=1;fontSize=16;" vertex="1" parent="Zkk-tBcWQcPe5gxD8Fpe-5">
          <mxGeometry width="30" height="30" as="geometry">
            <mxRectangle width="30" height="30" as="alternateBounds" />
          </mxGeometry>
        </mxCell>
        <mxCell id="Zkk-tBcWQcPe5gxD8Fpe-7" value="NgayNhap" style="shape=partialRectangle;connectable=0;fillColor=none;top=0;left=0;bottom=0;right=0;align=left;spacingLeft=6;overflow=hidden;whiteSpace=wrap;html=1;fontSize=16;" vertex="1" parent="Zkk-tBcWQcPe5gxD8Fpe-5">
          <mxGeometry x="30" width="150" height="30" as="geometry">
            <mxRectangle width="150" height="30" as="alternateBounds" />
          </mxGeometry>
        </mxCell>
        <mxCell id="Zkk-tBcWQcPe5gxD8Fpe-14" style="shape=tableRow;horizontal=0;startSize=0;swimlaneHead=0;swimlaneBody=0;fillColor=none;collapsible=0;dropTarget=0;points=[[0,0.5],[1,0.5]];portConstraint=eastwest;top=0;left=0;right=0;bottom=0;fontSize=16;" vertex="1" parent="Zkk-tBcWQcPe5gxD8Fpe-1">
          <mxGeometry y="90" width="180" height="30" as="geometry" />
        </mxCell>
        <mxCell id="Zkk-tBcWQcPe5gxD8Fpe-15" value="FK" style="shape=partialRectangle;connectable=0;fillColor=none;top=0;left=0;bottom=0;right=0;editable=1;overflow=hidden;whiteSpace=wrap;html=1;fontSize=16;" vertex="1" parent="Zkk-tBcWQcPe5gxD8Fpe-14">
          <mxGeometry width="30" height="30" as="geometry">
            <mxRectangle width="30" height="30" as="alternateBounds" />
          </mxGeometry>
        </mxCell>
        <mxCell id="Zkk-tBcWQcPe5gxD8Fpe-16" value="Ma_NCC" style="shape=partialRectangle;connectable=0;fillColor=none;top=0;left=0;bottom=0;right=0;align=left;spacingLeft=6;overflow=hidden;whiteSpace=wrap;html=1;fontSize=16;" vertex="1" parent="Zkk-tBcWQcPe5gxD8Fpe-14">
          <mxGeometry x="30" width="150" height="30" as="geometry">
            <mxRectangle width="150" height="30" as="alternateBounds" />
          </mxGeometry>
        </mxCell>
        <mxCell id="Zkk-tBcWQcPe5gxD8Fpe-17" style="shape=tableRow;horizontal=0;startSize=0;swimlaneHead=0;swimlaneBody=0;fillColor=none;collapsible=0;dropTarget=0;points=[[0,0.5],[1,0.5]];portConstraint=eastwest;top=0;left=0;right=0;bottom=0;fontSize=16;" vertex="1" parent="Zkk-tBcWQcPe5gxD8Fpe-1">
          <mxGeometry y="120" width="180" height="30" as="geometry" />
        </mxCell>
        <mxCell id="Zkk-tBcWQcPe5gxD8Fpe-18" value="FK" style="shape=partialRectangle;connectable=0;fillColor=none;top=0;left=0;bottom=0;right=0;editable=1;overflow=hidden;whiteSpace=wrap;html=1;fontSize=16;" vertex="1" parent="Zkk-tBcWQcPe5gxD8Fpe-17">
          <mxGeometry width="30" height="30" as="geometry">
            <mxRectangle width="30" height="30" as="alternateBounds" />
          </mxGeometry>
        </mxCell>
        <mxCell id="Zkk-tBcWQcPe5gxD8Fpe-19" value="" style="shape=partialRectangle;connectable=0;fillColor=none;top=0;left=0;bottom=0;right=0;align=left;spacingLeft=6;overflow=hidden;whiteSpace=wrap;html=1;fontSize=16;" vertex="1" parent="Zkk-tBcWQcPe5gxD8Fpe-17">
          <mxGeometry x="30" width="150" height="30" as="geometry">
            <mxRectangle width="150" height="30" as="alternateBounds" />
          </mxGeometry>
        </mxCell>
        <mxCell id="-8B2PvHMc_jzVL2Yt8Jw-76" value="" style="shape=tableRow;horizontal=0;startSize=0;swimlaneHead=0;swimlaneBody=0;fillColor=none;collapsible=0;dropTarget=0;points=[[0,0.5],[1,0.5]];portConstraint=eastwest;top=0;left=0;right=0;bottom=0;fontSize=16;" vertex="1" parent="Zkk-tBcWQcPe5gxD8Fpe-1">
          <mxGeometry y="150" width="180" height="30" as="geometry" />
        </mxCell>
        <mxCell id="-8B2PvHMc_jzVL2Yt8Jw-77" value="FK" style="shape=partialRectangle;connectable=0;fillColor=none;top=0;left=0;bottom=0;right=0;editable=1;overflow=hidden;whiteSpace=wrap;html=1;fontSize=16;" vertex="1" parent="-8B2PvHMc_jzVL2Yt8Jw-76">
          <mxGeometry width="30" height="30" as="geometry">
            <mxRectangle width="30" height="30" as="alternateBounds" />
          </mxGeometry>
        </mxCell>
        <mxCell id="-8B2PvHMc_jzVL2Yt8Jw-78" value="Ma_NhanVien" style="shape=partialRectangle;connectable=0;fillColor=none;top=0;left=0;bottom=0;right=0;align=left;spacingLeft=6;overflow=hidden;whiteSpace=wrap;html=1;fontSize=16;" vertex="1" parent="-8B2PvHMc_jzVL2Yt8Jw-76">
          <mxGeometry x="30" width="150" height="30" as="geometry">
            <mxRectangle width="150" height="30" as="alternateBounds" />
          </mxGeometry>
        </mxCell>
        <mxCell id="Zkk-tBcWQcPe5gxD8Fpe-39" value="Hang" style="shape=table;startSize=30;container=1;collapsible=1;childLayout=tableLayout;fixedRows=1;rowLines=0;fontStyle=1;align=center;resizeLast=1;html=1;fontSize=16;" vertex="1" parent="1">
          <mxGeometry x="1050" y="495" width="180" height="120" as="geometry" />
        </mxCell>
        <mxCell id="Zkk-tBcWQcPe5gxD8Fpe-40" value="" style="shape=tableRow;horizontal=0;startSize=0;swimlaneHead=0;swimlaneBody=0;fillColor=none;collapsible=0;dropTarget=0;points=[[0,0.5],[1,0.5]];portConstraint=eastwest;top=0;left=0;right=0;bottom=1;fontSize=16;" vertex="1" parent="Zkk-tBcWQcPe5gxD8Fpe-39">
          <mxGeometry y="30" width="180" height="30" as="geometry" />
        </mxCell>
        <mxCell id="Zkk-tBcWQcPe5gxD8Fpe-41" value="PK" style="shape=partialRectangle;connectable=0;fillColor=none;top=0;left=0;bottom=0;right=0;fontStyle=1;overflow=hidden;whiteSpace=wrap;html=1;fontSize=16;" vertex="1" parent="Zkk-tBcWQcPe5gxD8Fpe-40">
          <mxGeometry width="30" height="30" as="geometry">
            <mxRectangle width="30" height="30" as="alternateBounds" />
          </mxGeometry>
        </mxCell>
        <mxCell id="Zkk-tBcWQcPe5gxD8Fpe-42" value="Ma_H" style="shape=partialRectangle;connectable=0;fillColor=none;top=0;left=0;bottom=0;right=0;align=left;spacingLeft=6;fontStyle=5;overflow=hidden;whiteSpace=wrap;html=1;fontSize=16;" vertex="1" parent="Zkk-tBcWQcPe5gxD8Fpe-40">
          <mxGeometry x="30" width="150" height="30" as="geometry">
            <mxRectangle width="150" height="30" as="alternateBounds" />
          </mxGeometry>
        </mxCell>
        <mxCell id="Zkk-tBcWQcPe5gxD8Fpe-43" value="" style="shape=tableRow;horizontal=0;startSize=0;swimlaneHead=0;swimlaneBody=0;fillColor=none;collapsible=0;dropTarget=0;points=[[0,0.5],[1,0.5]];portConstraint=eastwest;top=0;left=0;right=0;bottom=0;fontSize=16;" vertex="1" parent="Zkk-tBcWQcPe5gxD8Fpe-39">
          <mxGeometry y="60" width="180" height="30" as="geometry" />
        </mxCell>
        <mxCell id="Zkk-tBcWQcPe5gxD8Fpe-44" value="" style="shape=partialRectangle;connectable=0;fillColor=none;top=0;left=0;bottom=0;right=0;editable=1;overflow=hidden;whiteSpace=wrap;html=1;fontSize=16;" vertex="1" parent="Zkk-tBcWQcPe5gxD8Fpe-43">
          <mxGeometry width="30" height="30" as="geometry">
            <mxRectangle width="30" height="30" as="alternateBounds" />
          </mxGeometry>
        </mxCell>
        <mxCell id="Zkk-tBcWQcPe5gxD8Fpe-45" value="Ten_H" style="shape=partialRectangle;connectable=0;fillColor=none;top=0;left=0;bottom=0;right=0;align=left;spacingLeft=6;overflow=hidden;whiteSpace=wrap;html=1;fontSize=16;" vertex="1" parent="Zkk-tBcWQcPe5gxD8Fpe-43">
          <mxGeometry x="30" width="150" height="30" as="geometry">
            <mxRectangle width="150" height="30" as="alternateBounds" />
          </mxGeometry>
        </mxCell>
        <mxCell id="Zkk-tBcWQcPe5gxD8Fpe-46" value="" style="shape=tableRow;horizontal=0;startSize=0;swimlaneHead=0;swimlaneBody=0;fillColor=none;collapsible=0;dropTarget=0;points=[[0,0.5],[1,0.5]];portConstraint=eastwest;top=0;left=0;right=0;bottom=0;fontSize=16;" vertex="1" parent="Zkk-tBcWQcPe5gxD8Fpe-39">
          <mxGeometry y="90" width="180" height="30" as="geometry" />
        </mxCell>
        <mxCell id="Zkk-tBcWQcPe5gxD8Fpe-47" value="" style="shape=partialRectangle;connectable=0;fillColor=none;top=0;left=0;bottom=0;right=0;editable=1;overflow=hidden;whiteSpace=wrap;html=1;fontSize=16;" vertex="1" parent="Zkk-tBcWQcPe5gxD8Fpe-46">
          <mxGeometry width="30" height="30" as="geometry">
            <mxRectangle width="30" height="30" as="alternateBounds" />
          </mxGeometry>
        </mxCell>
        <mxCell id="Zkk-tBcWQcPe5gxD8Fpe-48" value="DonGia" style="shape=partialRectangle;connectable=0;fillColor=none;top=0;left=0;bottom=0;right=0;align=left;spacingLeft=6;overflow=hidden;whiteSpace=wrap;html=1;fontSize=16;" vertex="1" parent="Zkk-tBcWQcPe5gxD8Fpe-46">
          <mxGeometry x="30" width="150" height="30" as="geometry">
            <mxRectangle width="150" height="30" as="alternateBounds" />
          </mxGeometry>
        </mxCell>
        <mxCell id="Zkk-tBcWQcPe5gxD8Fpe-65" value="" style="edgeStyle=entityRelationEdgeStyle;fontSize=16;html=1;endArrow=ERoneToMany;startArrow=ERmandOne;rounded=0;exitX=1;exitY=0.5;exitDx=0;exitDy=0;entryX=0;entryY=0.5;entryDx=0;entryDy=0;" edge="1" parent="1" source="Zkk-tBcWQcPe5gxD8Fpe-5" target="rjlsqOC13iRwdC6T-3i0-5">
          <mxGeometry width="100" height="100" relative="1" as="geometry">
            <mxPoint x="850" y="755" as="sourcePoint" />
            <mxPoint x="790" y="547.5" as="targetPoint" />
          </mxGeometry>
        </mxCell>
        <mxCell id="Zkk-tBcWQcPe5gxD8Fpe-66" value="" style="edgeStyle=entityRelationEdgeStyle;fontSize=16;html=1;endArrow=ERzeroToMany;startArrow=ERzeroToOne;rounded=0;entryX=1;entryY=0.5;entryDx=0;entryDy=0;exitX=0;exitY=0.5;exitDx=0;exitDy=0;" edge="1" parent="1" source="Zkk-tBcWQcPe5gxD8Fpe-40" target="rjlsqOC13iRwdC6T-3i0-8">
          <mxGeometry width="100" height="100" relative="1" as="geometry">
            <mxPoint x="850" y="755" as="sourcePoint" />
            <mxPoint x="970" y="585" as="targetPoint" />
          </mxGeometry>
        </mxCell>
        <mxCell id="Zkk-tBcWQcPe5gxD8Fpe-68" value="&lt;font style=&quot;font-size: 16px;&quot;&gt;NhaCungCap&lt;/font&gt;" style="shape=table;startSize=30;container=1;collapsible=1;childLayout=tableLayout;fixedRows=1;rowLines=0;fontStyle=1;align=center;resizeLast=1;html=1;fontSize=16;" vertex="1" parent="1">
          <mxGeometry x="270" y="400" width="180" height="150" as="geometry" />
        </mxCell>
        <mxCell id="Zkk-tBcWQcPe5gxD8Fpe-69" value="" style="shape=tableRow;horizontal=0;startSize=0;swimlaneHead=0;swimlaneBody=0;fillColor=none;collapsible=0;dropTarget=0;points=[[0,0.5],[1,0.5]];portConstraint=eastwest;top=0;left=0;right=0;bottom=1;fontSize=16;" vertex="1" parent="Zkk-tBcWQcPe5gxD8Fpe-68">
          <mxGeometry y="30" width="180" height="30" as="geometry" />
        </mxCell>
        <mxCell id="Zkk-tBcWQcPe5gxD8Fpe-70" value="PK" style="shape=partialRectangle;connectable=0;fillColor=none;top=0;left=0;bottom=0;right=0;fontStyle=1;overflow=hidden;whiteSpace=wrap;html=1;fontSize=16;" vertex="1" parent="Zkk-tBcWQcPe5gxD8Fpe-69">
          <mxGeometry width="30" height="30" as="geometry">
            <mxRectangle width="30" height="30" as="alternateBounds" />
          </mxGeometry>
        </mxCell>
        <mxCell id="Zkk-tBcWQcPe5gxD8Fpe-71" value="Ma_NCC" style="shape=partialRectangle;connectable=0;fillColor=none;top=0;left=0;bottom=0;right=0;align=left;spacingLeft=6;fontStyle=5;overflow=hidden;whiteSpace=wrap;html=1;fontSize=16;" vertex="1" parent="Zkk-tBcWQcPe5gxD8Fpe-69">
          <mxGeometry x="30" width="150" height="30" as="geometry">
            <mxRectangle width="150" height="30" as="alternateBounds" />
          </mxGeometry>
        </mxCell>
        <mxCell id="Zkk-tBcWQcPe5gxD8Fpe-72" value="" style="shape=tableRow;horizontal=0;startSize=0;swimlaneHead=0;swimlaneBody=0;fillColor=none;collapsible=0;dropTarget=0;points=[[0,0.5],[1,0.5]];portConstraint=eastwest;top=0;left=0;right=0;bottom=0;fontSize=16;" vertex="1" parent="Zkk-tBcWQcPe5gxD8Fpe-68">
          <mxGeometry y="60" width="180" height="30" as="geometry" />
        </mxCell>
        <mxCell id="Zkk-tBcWQcPe5gxD8Fpe-73" value="" style="shape=partialRectangle;connectable=0;fillColor=none;top=0;left=0;bottom=0;right=0;editable=1;overflow=hidden;whiteSpace=wrap;html=1;fontSize=16;" vertex="1" parent="Zkk-tBcWQcPe5gxD8Fpe-72">
          <mxGeometry width="30" height="30" as="geometry">
            <mxRectangle width="30" height="30" as="alternateBounds" />
          </mxGeometry>
        </mxCell>
        <mxCell id="Zkk-tBcWQcPe5gxD8Fpe-74" value="Ten_NCC" style="shape=partialRectangle;connectable=0;fillColor=none;top=0;left=0;bottom=0;right=0;align=left;spacingLeft=6;overflow=hidden;whiteSpace=wrap;html=1;fontSize=16;" vertex="1" parent="Zkk-tBcWQcPe5gxD8Fpe-72">
          <mxGeometry x="30" width="150" height="30" as="geometry">
            <mxRectangle width="150" height="30" as="alternateBounds" />
          </mxGeometry>
        </mxCell>
        <mxCell id="Zkk-tBcWQcPe5gxD8Fpe-75" value="" style="shape=tableRow;horizontal=0;startSize=0;swimlaneHead=0;swimlaneBody=0;fillColor=none;collapsible=0;dropTarget=0;points=[[0,0.5],[1,0.5]];portConstraint=eastwest;top=0;left=0;right=0;bottom=0;fontSize=16;" vertex="1" parent="Zkk-tBcWQcPe5gxD8Fpe-68">
          <mxGeometry y="90" width="180" height="30" as="geometry" />
        </mxCell>
        <mxCell id="Zkk-tBcWQcPe5gxD8Fpe-76" value="" style="shape=partialRectangle;connectable=0;fillColor=none;top=0;left=0;bottom=0;right=0;editable=1;overflow=hidden;whiteSpace=wrap;html=1;fontSize=16;" vertex="1" parent="Zkk-tBcWQcPe5gxD8Fpe-75">
          <mxGeometry width="30" height="30" as="geometry">
            <mxRectangle width="30" height="30" as="alternateBounds" />
          </mxGeometry>
        </mxCell>
        <mxCell id="Zkk-tBcWQcPe5gxD8Fpe-77" value="DiaChi_NCC" style="shape=partialRectangle;connectable=0;fillColor=none;top=0;left=0;bottom=0;right=0;align=left;spacingLeft=6;overflow=hidden;whiteSpace=wrap;html=1;fontSize=16;" vertex="1" parent="Zkk-tBcWQcPe5gxD8Fpe-75">
          <mxGeometry x="30" width="150" height="30" as="geometry">
            <mxRectangle width="150" height="30" as="alternateBounds" />
          </mxGeometry>
        </mxCell>
        <mxCell id="Zkk-tBcWQcPe5gxD8Fpe-78" value="" style="shape=tableRow;horizontal=0;startSize=0;swimlaneHead=0;swimlaneBody=0;fillColor=none;collapsible=0;dropTarget=0;points=[[0,0.5],[1,0.5]];portConstraint=eastwest;top=0;left=0;right=0;bottom=0;fontSize=16;" vertex="1" parent="Zkk-tBcWQcPe5gxD8Fpe-68">
          <mxGeometry y="120" width="180" height="30" as="geometry" />
        </mxCell>
        <mxCell id="Zkk-tBcWQcPe5gxD8Fpe-79" value="" style="shape=partialRectangle;connectable=0;fillColor=none;top=0;left=0;bottom=0;right=0;editable=1;overflow=hidden;whiteSpace=wrap;html=1;fontSize=16;" vertex="1" parent="Zkk-tBcWQcPe5gxD8Fpe-78">
          <mxGeometry width="30" height="30" as="geometry">
            <mxRectangle width="30" height="30" as="alternateBounds" />
          </mxGeometry>
        </mxCell>
        <mxCell id="Zkk-tBcWQcPe5gxD8Fpe-80" value="SDT_NCC" style="shape=partialRectangle;connectable=0;fillColor=none;top=0;left=0;bottom=0;right=0;align=left;spacingLeft=6;overflow=hidden;whiteSpace=wrap;html=1;fontSize=16;" vertex="1" parent="Zkk-tBcWQcPe5gxD8Fpe-78">
          <mxGeometry x="30" width="150" height="30" as="geometry">
            <mxRectangle width="150" height="30" as="alternateBounds" />
          </mxGeometry>
        </mxCell>
        <mxCell id="Zkk-tBcWQcPe5gxD8Fpe-83" value="Ma_HD_No" style="shape=partialRectangle;connectable=0;fillColor=none;top=0;left=0;bottom=0;right=0;align=left;spacingLeft=6;overflow=hidden;whiteSpace=wrap;html=1;fontSize=16;" vertex="1" parent="1">
          <mxGeometry x="550" y="615" width="150" height="30" as="geometry">
            <mxRectangle width="150" height="30" as="alternateBounds" />
          </mxGeometry>
        </mxCell>
        <mxCell id="Zkk-tBcWQcPe5gxD8Fpe-90" value="" style="edgeStyle=entityRelationEdgeStyle;fontSize=16;html=1;endArrow=ERoneToMany;startArrow=ERmandOne;rounded=0;entryX=0;entryY=0.5;entryDx=0;entryDy=0;exitX=1;exitY=0.5;exitDx=0;exitDy=0;" edge="1" parent="1" source="Zkk-tBcWQcPe5gxD8Fpe-69" target="Zkk-tBcWQcPe5gxD8Fpe-5">
          <mxGeometry width="100" height="100" relative="1" as="geometry">
            <mxPoint x="440" y="655" as="sourcePoint" />
            <mxPoint x="380" y="495" as="targetPoint" />
          </mxGeometry>
        </mxCell>
        <mxCell id="u462wseT_vUOSSLegIhY-1" value="" style="edgeStyle=orthogonalEdgeStyle;fontSize=16;html=1;endArrow=ERoneToMany;startArrow=ERmandOne;rounded=0;exitX=0;exitY=0.5;exitDx=0;exitDy=0;entryX=1;entryY=0.5;entryDx=0;entryDy=0;" edge="1" parent="1" source="s9ClLIuxdjHM1Dz8LOJ4-167" target="s9ClLIuxdjHM1Dz8LOJ4-186">
          <mxGeometry width="100" height="100" relative="1" as="geometry">
            <mxPoint x="1520" y="1190" as="sourcePoint" />
            <mxPoint x="1560" y="940" as="targetPoint" />
          </mxGeometry>
        </mxCell>
        <mxCell id="skfGzKgs7RRxEF6BBfAG-1" value="No" style="shape=table;startSize=30;container=1;collapsible=1;childLayout=tableLayout;fixedRows=1;rowLines=0;fontStyle=1;align=center;resizeLast=1;html=1;fontSize=16;" vertex="1" parent="1">
          <mxGeometry x="270" y="650" width="180" height="150" as="geometry" />
        </mxCell>
        <mxCell id="skfGzKgs7RRxEF6BBfAG-2" value="" style="shape=tableRow;horizontal=0;startSize=0;swimlaneHead=0;swimlaneBody=0;fillColor=none;collapsible=0;dropTarget=0;points=[[0,0.5],[1,0.5]];portConstraint=eastwest;top=0;left=0;right=0;bottom=1;fontSize=16;" vertex="1" parent="skfGzKgs7RRxEF6BBfAG-1">
          <mxGeometry y="30" width="180" height="30" as="geometry" />
        </mxCell>
        <mxCell id="skfGzKgs7RRxEF6BBfAG-3" value="PK" style="shape=partialRectangle;connectable=0;fillColor=none;top=0;left=0;bottom=0;right=0;fontStyle=1;overflow=hidden;whiteSpace=wrap;html=1;fontSize=16;" vertex="1" parent="skfGzKgs7RRxEF6BBfAG-2">
          <mxGeometry width="30" height="30" as="geometry">
            <mxRectangle width="30" height="30" as="alternateBounds" />
          </mxGeometry>
        </mxCell>
        <mxCell id="skfGzKgs7RRxEF6BBfAG-4" value="Ma_HD_No" style="shape=partialRectangle;connectable=0;fillColor=none;top=0;left=0;bottom=0;right=0;align=left;spacingLeft=6;fontStyle=5;overflow=hidden;whiteSpace=wrap;html=1;fontSize=16;" vertex="1" parent="skfGzKgs7RRxEF6BBfAG-2">
          <mxGeometry x="30" width="150" height="30" as="geometry">
            <mxRectangle width="150" height="30" as="alternateBounds" />
          </mxGeometry>
        </mxCell>
        <mxCell id="skfGzKgs7RRxEF6BBfAG-5" value="" style="shape=tableRow;horizontal=0;startSize=0;swimlaneHead=0;swimlaneBody=0;fillColor=none;collapsible=0;dropTarget=0;points=[[0,0.5],[1,0.5]];portConstraint=eastwest;top=0;left=0;right=0;bottom=0;fontSize=16;" vertex="1" parent="skfGzKgs7RRxEF6BBfAG-1">
          <mxGeometry y="60" width="180" height="30" as="geometry" />
        </mxCell>
        <mxCell id="skfGzKgs7RRxEF6BBfAG-6" value="" style="shape=partialRectangle;connectable=0;fillColor=none;top=0;left=0;bottom=0;right=0;editable=1;overflow=hidden;whiteSpace=wrap;html=1;fontSize=16;" vertex="1" parent="skfGzKgs7RRxEF6BBfAG-5">
          <mxGeometry width="30" height="30" as="geometry">
            <mxRectangle width="30" height="30" as="alternateBounds" />
          </mxGeometry>
        </mxCell>
        <mxCell id="skfGzKgs7RRxEF6BBfAG-7" value="Tien_No" style="shape=partialRectangle;connectable=0;fillColor=none;top=0;left=0;bottom=0;right=0;align=left;spacingLeft=6;overflow=hidden;whiteSpace=wrap;html=1;fontSize=16;" vertex="1" parent="skfGzKgs7RRxEF6BBfAG-5">
          <mxGeometry x="30" width="150" height="30" as="geometry">
            <mxRectangle width="150" height="30" as="alternateBounds" />
          </mxGeometry>
        </mxCell>
        <mxCell id="skfGzKgs7RRxEF6BBfAG-8" value="" style="shape=tableRow;horizontal=0;startSize=0;swimlaneHead=0;swimlaneBody=0;fillColor=none;collapsible=0;dropTarget=0;points=[[0,0.5],[1,0.5]];portConstraint=eastwest;top=0;left=0;right=0;bottom=0;fontSize=16;" vertex="1" parent="skfGzKgs7RRxEF6BBfAG-1">
          <mxGeometry y="90" width="180" height="30" as="geometry" />
        </mxCell>
        <mxCell id="skfGzKgs7RRxEF6BBfAG-9" value="" style="shape=partialRectangle;connectable=0;fillColor=none;top=0;left=0;bottom=0;right=0;editable=1;overflow=hidden;whiteSpace=wrap;html=1;fontSize=16;" vertex="1" parent="skfGzKgs7RRxEF6BBfAG-8">
          <mxGeometry width="30" height="30" as="geometry">
            <mxRectangle width="30" height="30" as="alternateBounds" />
          </mxGeometry>
        </mxCell>
        <mxCell id="skfGzKgs7RRxEF6BBfAG-10" value="NgayHetHan" style="shape=partialRectangle;connectable=0;fillColor=none;top=0;left=0;bottom=0;right=0;align=left;spacingLeft=6;overflow=hidden;whiteSpace=wrap;html=1;fontSize=16;" vertex="1" parent="skfGzKgs7RRxEF6BBfAG-8">
          <mxGeometry x="30" width="150" height="30" as="geometry">
            <mxRectangle width="150" height="30" as="alternateBounds" />
          </mxGeometry>
        </mxCell>
        <mxCell id="skfGzKgs7RRxEF6BBfAG-11" value="" style="shape=tableRow;horizontal=0;startSize=0;swimlaneHead=0;swimlaneBody=0;fillColor=none;collapsible=0;dropTarget=0;points=[[0,0.5],[1,0.5]];portConstraint=eastwest;top=0;left=0;right=0;bottom=0;fontSize=16;" vertex="1" parent="skfGzKgs7RRxEF6BBfAG-1">
          <mxGeometry y="120" width="180" height="30" as="geometry" />
        </mxCell>
        <mxCell id="skfGzKgs7RRxEF6BBfAG-12" value="FK" style="shape=partialRectangle;connectable=0;fillColor=none;top=0;left=0;bottom=0;right=0;editable=1;overflow=hidden;whiteSpace=wrap;html=1;fontSize=16;" vertex="1" parent="skfGzKgs7RRxEF6BBfAG-11">
          <mxGeometry width="30" height="30" as="geometry">
            <mxRectangle width="30" height="30" as="alternateBounds" />
          </mxGeometry>
        </mxCell>
        <mxCell id="skfGzKgs7RRxEF6BBfAG-13" value="Ma_NCC" style="shape=partialRectangle;connectable=0;fillColor=none;top=0;left=0;bottom=0;right=0;align=left;spacingLeft=6;overflow=hidden;whiteSpace=wrap;html=1;fontSize=16;" vertex="1" parent="skfGzKgs7RRxEF6BBfAG-11">
          <mxGeometry x="30" width="150" height="30" as="geometry">
            <mxRectangle width="150" height="30" as="alternateBounds" />
          </mxGeometry>
        </mxCell>
        <mxCell id="skfGzKgs7RRxEF6BBfAG-14" value="" style="edgeStyle=entityRelationEdgeStyle;fontSize=16;html=1;endArrow=ERmandOne;startArrow=ERmandOne;rounded=0;entryX=0;entryY=0.5;entryDx=0;entryDy=0;exitX=1;exitY=0.5;exitDx=0;exitDy=0;" edge="1" parent="1" source="skfGzKgs7RRxEF6BBfAG-2" target="Zkk-tBcWQcPe5gxD8Fpe-14">
          <mxGeometry width="100" height="100" relative="1" as="geometry">
            <mxPoint x="310" y="670" as="sourcePoint" />
            <mxPoint x="410" y="570" as="targetPoint" />
          </mxGeometry>
        </mxCell>
        <mxCell id="skfGzKgs7RRxEF6BBfAG-16" value="" style="fontSize=16;html=1;endArrow=ERoneToMany;startArrow=ERmandOne;rounded=0;entryX=0.5;entryY=0;entryDx=0;entryDy=0;" edge="1" parent="1" source="Zkk-tBcWQcPe5gxD8Fpe-78" target="skfGzKgs7RRxEF6BBfAG-1">
          <mxGeometry width="100" height="100" relative="1" as="geometry">
            <mxPoint x="360" y="570" as="sourcePoint" />
            <mxPoint x="190" y="520" as="targetPoint" />
          </mxGeometry>
        </mxCell>
        <mxCell id="TNpa2pYWwtroGsfbxV0w-1" value="" style="edgeStyle=orthogonalEdgeStyle;fontSize=16;html=1;endArrow=ERoneToMany;startArrow=ERmandOne;rounded=0;entryX=1;entryY=0.5;entryDx=0;entryDy=0;exitX=0.75;exitY=0;exitDx=0;exitDy=0;" edge="1" parent="1" source="s9ClLIuxdjHM1Dz8LOJ4-81" target="Zkk-tBcWQcPe5gxD8Fpe-14">
          <mxGeometry width="100" height="100" relative="1" as="geometry">
            <mxPoint x="610" y="800" as="sourcePoint" />
            <mxPoint x="710" y="700" as="targetPoint" />
          </mxGeometry>
        </mxCell>
        <mxCell id="rjlsqOC13iRwdC6T-3i0-4" value="Nhap_CT" style="shape=table;startSize=30;container=1;collapsible=1;childLayout=tableLayout;fixedRows=1;rowLines=0;fontStyle=1;align=center;resizeLast=1;html=1;fontSize=16;" vertex="1" parent="1">
          <mxGeometry x="790" y="495" width="180" height="125" as="geometry" />
        </mxCell>
        <mxCell id="rjlsqOC13iRwdC6T-3i0-5" value="" style="shape=tableRow;horizontal=0;startSize=0;swimlaneHead=0;swimlaneBody=0;fillColor=none;collapsible=0;dropTarget=0;points=[[0,0.5],[1,0.5]];portConstraint=eastwest;top=0;left=0;right=0;bottom=1;fontSize=16;" vertex="1" parent="rjlsqOC13iRwdC6T-3i0-4">
          <mxGeometry y="30" width="180" height="30" as="geometry" />
        </mxCell>
        <mxCell id="rjlsqOC13iRwdC6T-3i0-6" value="PK" style="shape=partialRectangle;connectable=0;fillColor=none;top=0;left=0;bottom=0;right=0;fontStyle=1;overflow=hidden;whiteSpace=wrap;html=1;fontSize=16;" vertex="1" parent="rjlsqOC13iRwdC6T-3i0-5">
          <mxGeometry width="30" height="30" as="geometry">
            <mxRectangle width="30" height="30" as="alternateBounds" />
          </mxGeometry>
        </mxCell>
        <mxCell id="rjlsqOC13iRwdC6T-3i0-7" value="Ma_HD_Nhap" style="shape=partialRectangle;connectable=0;fillColor=none;top=0;left=0;bottom=0;right=0;align=left;spacingLeft=6;fontStyle=5;overflow=hidden;whiteSpace=wrap;html=1;fontSize=16;" vertex="1" parent="rjlsqOC13iRwdC6T-3i0-5">
          <mxGeometry x="30" width="150" height="30" as="geometry">
            <mxRectangle width="150" height="30" as="alternateBounds" />
          </mxGeometry>
        </mxCell>
        <mxCell id="rjlsqOC13iRwdC6T-3i0-8" value="" style="shape=tableRow;horizontal=0;startSize=0;swimlaneHead=0;swimlaneBody=0;fillColor=none;collapsible=0;dropTarget=0;points=[[0,0.5],[1,0.5]];portConstraint=eastwest;top=0;left=0;right=0;bottom=0;fontSize=16;" vertex="1" parent="rjlsqOC13iRwdC6T-3i0-4">
          <mxGeometry y="60" width="180" height="30" as="geometry" />
        </mxCell>
        <mxCell id="rjlsqOC13iRwdC6T-3i0-9" value="&lt;b&gt;PK&lt;/b&gt;" style="shape=partialRectangle;connectable=0;fillColor=none;top=0;left=0;bottom=0;right=0;editable=1;overflow=hidden;whiteSpace=wrap;html=1;fontSize=16;" vertex="1" parent="rjlsqOC13iRwdC6T-3i0-8">
          <mxGeometry width="30" height="30" as="geometry">
            <mxRectangle width="30" height="30" as="alternateBounds" />
          </mxGeometry>
        </mxCell>
        <mxCell id="rjlsqOC13iRwdC6T-3i0-10" value="&lt;b&gt;&lt;u&gt;Ma_H&lt;/u&gt;&lt;/b&gt;" style="shape=partialRectangle;connectable=0;fillColor=none;top=0;left=0;bottom=0;right=0;align=left;spacingLeft=6;overflow=hidden;whiteSpace=wrap;html=1;fontSize=16;" vertex="1" parent="rjlsqOC13iRwdC6T-3i0-8">
          <mxGeometry x="30" width="150" height="30" as="geometry">
            <mxRectangle width="150" height="30" as="alternateBounds" />
          </mxGeometry>
        </mxCell>
        <mxCell id="rjlsqOC13iRwdC6T-3i0-11" value="" style="shape=tableRow;horizontal=0;startSize=0;swimlaneHead=0;swimlaneBody=0;fillColor=none;collapsible=0;dropTarget=0;points=[[0,0.5],[1,0.5]];portConstraint=eastwest;top=0;left=0;right=0;bottom=0;fontSize=16;" vertex="1" parent="rjlsqOC13iRwdC6T-3i0-4">
          <mxGeometry y="90" width="180" height="35" as="geometry" />
        </mxCell>
        <mxCell id="rjlsqOC13iRwdC6T-3i0-12" value="" style="shape=partialRectangle;connectable=0;fillColor=none;top=0;left=0;bottom=0;right=0;editable=1;overflow=hidden;whiteSpace=wrap;html=1;fontSize=16;" vertex="1" parent="rjlsqOC13iRwdC6T-3i0-11">
          <mxGeometry width="30" height="35" as="geometry">
            <mxRectangle width="30" height="35" as="alternateBounds" />
          </mxGeometry>
        </mxCell>
        <mxCell id="rjlsqOC13iRwdC6T-3i0-13" value="SoLuong" style="shape=partialRectangle;connectable=0;fillColor=none;top=0;left=0;bottom=0;right=0;align=left;spacingLeft=6;overflow=hidden;whiteSpace=wrap;html=1;fontSize=16;" vertex="1" parent="rjlsqOC13iRwdC6T-3i0-11">
          <mxGeometry x="30" width="150" height="35" as="geometry">
            <mxRectangle width="150" height="35" as="alternateBounds" />
          </mxGeometry>
        </mxCell>
        <mxCell id="YkpbiubzLwZUPAqHFdCp-1" value="FK" style="shape=partialRectangle;connectable=0;fillColor=none;top=0;left=0;bottom=0;right=0;editable=1;overflow=hidden;whiteSpace=wrap;html=1;fontSize=16;" vertex="1" parent="1">
          <mxGeometry x="920" y="900" width="30" height="30" as="geometry">
            <mxRectangle width="30" height="30" as="alternateBounds" />
          </mxGeometry>
        </mxCell>
        <mxCell id="UGKv_VSdxesSdC79pI0j-4" value="TaiKhoan" style="shape=table;startSize=30;container=1;collapsible=1;childLayout=tableLayout;fixedRows=1;rowLines=0;fontStyle=1;align=center;resizeLast=1;html=1;fontSize=16;" vertex="1" parent="1">
          <mxGeometry x="1400" y="495" width="180" height="120" as="geometry" />
        </mxCell>
        <mxCell id="UGKv_VSdxesSdC79pI0j-5" value="" style="shape=tableRow;horizontal=0;startSize=0;swimlaneHead=0;swimlaneBody=0;fillColor=none;collapsible=0;dropTarget=0;points=[[0,0.5],[1,0.5]];portConstraint=eastwest;top=0;left=0;right=0;bottom=1;fontSize=16;" vertex="1" parent="UGKv_VSdxesSdC79pI0j-4">
          <mxGeometry y="30" width="180" height="30" as="geometry" />
        </mxCell>
        <mxCell id="UGKv_VSdxesSdC79pI0j-6" value="PK" style="shape=partialRectangle;connectable=0;fillColor=none;top=0;left=0;bottom=0;right=0;fontStyle=1;overflow=hidden;whiteSpace=wrap;html=1;fontSize=16;" vertex="1" parent="UGKv_VSdxesSdC79pI0j-5">
          <mxGeometry width="30" height="30" as="geometry">
            <mxRectangle width="30" height="30" as="alternateBounds" />
          </mxGeometry>
        </mxCell>
        <mxCell id="UGKv_VSdxesSdC79pI0j-7" value="TenDN" style="shape=partialRectangle;connectable=0;fillColor=none;top=0;left=0;bottom=0;right=0;align=left;spacingLeft=6;fontStyle=5;overflow=hidden;whiteSpace=wrap;html=1;fontSize=16;" vertex="1" parent="UGKv_VSdxesSdC79pI0j-5">
          <mxGeometry x="30" width="150" height="30" as="geometry">
            <mxRectangle width="150" height="30" as="alternateBounds" />
          </mxGeometry>
        </mxCell>
        <mxCell id="UGKv_VSdxesSdC79pI0j-8" value="" style="shape=tableRow;horizontal=0;startSize=0;swimlaneHead=0;swimlaneBody=0;fillColor=none;collapsible=0;dropTarget=0;points=[[0,0.5],[1,0.5]];portConstraint=eastwest;top=0;left=0;right=0;bottom=0;fontSize=16;" vertex="1" parent="UGKv_VSdxesSdC79pI0j-4">
          <mxGeometry y="60" width="180" height="30" as="geometry" />
        </mxCell>
        <mxCell id="UGKv_VSdxesSdC79pI0j-9" value="" style="shape=partialRectangle;connectable=0;fillColor=none;top=0;left=0;bottom=0;right=0;editable=1;overflow=hidden;whiteSpace=wrap;html=1;fontSize=16;" vertex="1" parent="UGKv_VSdxesSdC79pI0j-8">
          <mxGeometry width="30" height="30" as="geometry">
            <mxRectangle width="30" height="30" as="alternateBounds" />
          </mxGeometry>
        </mxCell>
        <mxCell id="UGKv_VSdxesSdC79pI0j-10" value="MatKhau" style="shape=partialRectangle;connectable=0;fillColor=none;top=0;left=0;bottom=0;right=0;align=left;spacingLeft=6;overflow=hidden;whiteSpace=wrap;html=1;fontSize=16;" vertex="1" parent="UGKv_VSdxesSdC79pI0j-8">
          <mxGeometry x="30" width="150" height="30" as="geometry">
            <mxRectangle width="150" height="30" as="alternateBounds" />
          </mxGeometry>
        </mxCell>
        <mxCell id="UGKv_VSdxesSdC79pI0j-11" value="" style="shape=tableRow;horizontal=0;startSize=0;swimlaneHead=0;swimlaneBody=0;fillColor=none;collapsible=0;dropTarget=0;points=[[0,0.5],[1,0.5]];portConstraint=eastwest;top=0;left=0;right=0;bottom=0;fontSize=16;" vertex="1" parent="UGKv_VSdxesSdC79pI0j-4">
          <mxGeometry y="90" width="180" height="30" as="geometry" />
        </mxCell>
        <mxCell id="UGKv_VSdxesSdC79pI0j-12" value="" style="shape=partialRectangle;connectable=0;fillColor=none;top=0;left=0;bottom=0;right=0;editable=1;overflow=hidden;whiteSpace=wrap;html=1;fontSize=16;" vertex="1" parent="UGKv_VSdxesSdC79pI0j-11">
          <mxGeometry width="30" height="30" as="geometry">
            <mxRectangle width="30" height="30" as="alternateBounds" />
          </mxGeometry>
        </mxCell>
        <mxCell id="UGKv_VSdxesSdC79pI0j-13" value="Quyen" style="shape=partialRectangle;connectable=0;fillColor=none;top=0;left=0;bottom=0;right=0;align=left;spacingLeft=6;overflow=hidden;whiteSpace=wrap;html=1;fontSize=16;" vertex="1" parent="UGKv_VSdxesSdC79pI0j-11">
          <mxGeometry x="30" width="150" height="30" as="geometry">
            <mxRectangle width="150" height="30" as="alternateBounds" />
          </mxGeometry>
        </mxCell>
      </root>
    </mxGraphModel>
  </diagram>
  <diagram id="OefnK_5qKjKMp4WRsfIt" name="Trang-2">
    <mxGraphModel grid="1" page="1" gridSize="10" guides="1" tooltips="1" connect="1" arrows="1" fold="1" pageScale="1" pageWidth="827" pageHeight="1169" math="0" shadow="0">
      <root>
        <mxCell id="0" />
        <mxCell id="1" parent="0" />
        <mxCell id="ExoA8ng7ZrZ4Hlk2rozz-1" value="&lt;font style=&quot;font-size: 18px;&quot;&gt;Nhap&lt;/font&gt;" style="rhombus;whiteSpace=wrap;html=1;fillColor=#dae8fc;strokeColor=#6c8ebf;" vertex="1" parent="1">
          <mxGeometry x="350" y="-150" width="100" height="80" as="geometry" />
        </mxCell>
        <mxCell id="ExoA8ng7ZrZ4Hlk2rozz-2" value="&lt;font style=&quot;font-size: 18px;&quot;&gt;NhaCungCap&lt;/font&gt;" style="rounded=0;whiteSpace=wrap;html=1;fillColor=#f8cecc;strokeColor=#b85450;" vertex="1" parent="1">
          <mxGeometry x="70" y="-100" width="120" height="60" as="geometry" />
        </mxCell>
        <mxCell id="ExoA8ng7ZrZ4Hlk2rozz-3" value="&lt;font style=&quot;font-size: 18px;&quot;&gt;No&lt;/font&gt;" style="rounded=0;whiteSpace=wrap;html=1;fillColor=#f8cecc;strokeColor=#b85450;" vertex="1" parent="1">
          <mxGeometry x="515" y="-150" width="120" height="60" as="geometry" />
        </mxCell>
        <mxCell id="ExoA8ng7ZrZ4Hlk2rozz-4" value="&lt;font style=&quot;font-size: 18px;&quot;&gt;Hang&lt;/font&gt;" style="rounded=0;whiteSpace=wrap;html=1;fillColor=#f8cecc;strokeColor=#b85450;" vertex="1" parent="1">
          <mxGeometry x="290" width="120" height="60" as="geometry" />
        </mxCell>
        <mxCell id="ExoA8ng7ZrZ4Hlk2rozz-5" value="&lt;u&gt;&lt;font style=&quot;font-size: 18px;&quot;&gt;Ma_NCC&lt;/font&gt;&lt;/u&gt;" style="ellipse;whiteSpace=wrap;html=1;fillColor=#fff2cc;strokeColor=#d6b656;" vertex="1" parent="1">
          <mxGeometry x="-50" y="-200" width="120" height="80" as="geometry" />
        </mxCell>
        <mxCell id="ExoA8ng7ZrZ4Hlk2rozz-6" value="&lt;font style=&quot;font-size: 18px;&quot;&gt;Ten_NCC&lt;/font&gt;" style="ellipse;whiteSpace=wrap;html=1;fillColor=#fff2cc;strokeColor=#d6b656;" vertex="1" parent="1">
          <mxGeometry x="-120" y="-110" width="120" height="80" as="geometry" />
        </mxCell>
        <mxCell id="ExoA8ng7ZrZ4Hlk2rozz-7" value="" style="endArrow=none;html=1;rounded=0;entryX=1;entryY=1;entryDx=0;entryDy=0;exitX=0.5;exitY=0;exitDx=0;exitDy=0;" edge="1" parent="1" source="ExoA8ng7ZrZ4Hlk2rozz-2" target="ExoA8ng7ZrZ4Hlk2rozz-5">
          <mxGeometry width="50" height="50" relative="1" as="geometry">
            <mxPoint x="220" y="-60" as="sourcePoint" />
            <mxPoint x="270" y="-110" as="targetPoint" />
          </mxGeometry>
        </mxCell>
        <mxCell id="ExoA8ng7ZrZ4Hlk2rozz-8" value="" style="endArrow=none;html=1;rounded=0;exitX=1;exitY=0.5;exitDx=0;exitDy=0;entryX=0;entryY=0.5;entryDx=0;entryDy=0;" edge="1" parent="1" source="ExoA8ng7ZrZ4Hlk2rozz-6" target="ExoA8ng7ZrZ4Hlk2rozz-2">
          <mxGeometry width="50" height="50" relative="1" as="geometry">
            <mxPoint x="-60.00359312880726" y="18.284271247461675" as="sourcePoint" />
            <mxPoint x="237.57" y="-40" as="targetPoint" />
          </mxGeometry>
        </mxCell>
        <mxCell id="ExoA8ng7ZrZ4Hlk2rozz-9" value="&lt;font style=&quot;font-size: 18px;&quot;&gt;DiaChi_CC&lt;/font&gt;" style="ellipse;whiteSpace=wrap;html=1;fillColor=#fff2cc;strokeColor=#d6b656;" vertex="1" parent="1">
          <mxGeometry x="-90" y="-20" width="120" height="80" as="geometry" />
        </mxCell>
        <mxCell id="ExoA8ng7ZrZ4Hlk2rozz-10" value="&lt;font style=&quot;font-size: 18px;&quot;&gt;SDT_NCC&lt;/font&gt;" style="ellipse;whiteSpace=wrap;html=1;fillColor=#fff2cc;strokeColor=#d6b656;" vertex="1" parent="1">
          <mxGeometry y="60" width="120" height="80" as="geometry" />
        </mxCell>
        <mxCell id="ExoA8ng7ZrZ4Hlk2rozz-11" value="" style="endArrow=none;html=1;rounded=0;exitX=1;exitY=0;exitDx=0;exitDy=0;entryX=0;entryY=1;entryDx=0;entryDy=0;" edge="1" parent="1" source="ExoA8ng7ZrZ4Hlk2rozz-9" target="ExoA8ng7ZrZ4Hlk2rozz-2">
          <mxGeometry width="50" height="50" relative="1" as="geometry">
            <mxPoint x="70" y="10" as="sourcePoint" />
            <mxPoint x="150" y="20" as="targetPoint" />
          </mxGeometry>
        </mxCell>
        <mxCell id="ExoA8ng7ZrZ4Hlk2rozz-12" value="" style="endArrow=none;html=1;rounded=0;exitX=0.5;exitY=0;exitDx=0;exitDy=0;" edge="1" parent="1" source="ExoA8ng7ZrZ4Hlk2rozz-10" target="ExoA8ng7ZrZ4Hlk2rozz-2">
          <mxGeometry width="50" height="50" relative="1" as="geometry">
            <mxPoint x="10" y="-60" as="sourcePoint" />
            <mxPoint x="90" y="-50" as="targetPoint" />
          </mxGeometry>
        </mxCell>
        <mxCell id="ExoA8ng7ZrZ4Hlk2rozz-13" value="&lt;font style=&quot;font-size: 18px;&quot;&gt;NgayNhap&lt;/font&gt;" style="ellipse;whiteSpace=wrap;html=1;fillColor=#fff2cc;strokeColor=#d6b656;" vertex="1" parent="1">
          <mxGeometry x="380" y="-290" width="120" height="80" as="geometry" />
        </mxCell>
        <mxCell id="ExoA8ng7ZrZ4Hlk2rozz-14" value="&lt;u&gt;&lt;font style=&quot;font-size: 18px;&quot;&gt;Ma_HD_Nhap&lt;/font&gt;&lt;/u&gt;" style="ellipse;whiteSpace=wrap;html=1;fillColor=#fff2cc;strokeColor=#d6b656;" vertex="1" parent="1">
          <mxGeometry x="200" y="-270" width="120" height="80" as="geometry" />
        </mxCell>
        <mxCell id="ExoA8ng7ZrZ4Hlk2rozz-17" value="" style="endArrow=none;html=1;rounded=0;entryX=1;entryY=1;entryDx=0;entryDy=0;exitX=0;exitY=0;exitDx=0;exitDy=0;" edge="1" parent="1" source="ExoA8ng7ZrZ4Hlk2rozz-1" target="ExoA8ng7ZrZ4Hlk2rozz-14">
          <mxGeometry width="50" height="50" relative="1" as="geometry">
            <mxPoint x="410" y="-150" as="sourcePoint" />
            <mxPoint x="490" y="-260" as="targetPoint" />
          </mxGeometry>
        </mxCell>
        <mxCell id="ExoA8ng7ZrZ4Hlk2rozz-18" value="" style="endArrow=none;html=1;rounded=0;entryX=0.5;entryY=1;entryDx=0;entryDy=0;exitX=1;exitY=0;exitDx=0;exitDy=0;" edge="1" parent="1" source="ExoA8ng7ZrZ4Hlk2rozz-1" target="ExoA8ng7ZrZ4Hlk2rozz-13">
          <mxGeometry width="50" height="50" relative="1" as="geometry">
            <mxPoint x="440" y="-210" as="sourcePoint" />
            <mxPoint x="490" y="-260" as="targetPoint" />
          </mxGeometry>
        </mxCell>
        <mxCell id="ExoA8ng7ZrZ4Hlk2rozz-21" value="&lt;font style=&quot;font-size: 18px;&quot;&gt;&lt;u&gt;Ma_H&lt;/u&gt;&lt;/font&gt;" style="ellipse;whiteSpace=wrap;html=1;fillColor=#fff2cc;strokeColor=#d6b656;" vertex="1" parent="1">
          <mxGeometry x="340" y="100" width="120" height="80" as="geometry" />
        </mxCell>
        <mxCell id="ExoA8ng7ZrZ4Hlk2rozz-22" value="&lt;font style=&quot;font-size: 18px;&quot;&gt;Tien_No&lt;/font&gt;" style="ellipse;whiteSpace=wrap;html=1;fillColor=#fff2cc;strokeColor=#d6b656;" vertex="1" parent="1">
          <mxGeometry x="695" y="-130" width="120" height="80" as="geometry" />
        </mxCell>
        <mxCell id="ExoA8ng7ZrZ4Hlk2rozz-23" value="&lt;font style=&quot;font-size: 18px;&quot;&gt;&lt;u&gt;Ma_HD_No&lt;/u&gt;&lt;/font&gt;" style="ellipse;whiteSpace=wrap;html=1;fillColor=#fff2cc;strokeColor=#d6b656;" vertex="1" parent="1">
          <mxGeometry x="685" y="-220" width="120" height="80" as="geometry" />
        </mxCell>
        <mxCell id="ExoA8ng7ZrZ4Hlk2rozz-24" value="" style="endArrow=none;html=1;rounded=0;entryX=0;entryY=0.5;entryDx=0;entryDy=0;exitX=1;exitY=0.25;exitDx=0;exitDy=0;" edge="1" parent="1" source="ExoA8ng7ZrZ4Hlk2rozz-3" target="ExoA8ng7ZrZ4Hlk2rozz-23">
          <mxGeometry width="50" height="50" relative="1" as="geometry">
            <mxPoint x="375" y="-60" as="sourcePoint" />
            <mxPoint x="425" y="-110" as="targetPoint" />
          </mxGeometry>
        </mxCell>
        <mxCell id="ExoA8ng7ZrZ4Hlk2rozz-25" value="" style="endArrow=none;html=1;rounded=0;entryX=0;entryY=0.5;entryDx=0;entryDy=0;exitX=1;exitY=0.75;exitDx=0;exitDy=0;" edge="1" parent="1" source="ExoA8ng7ZrZ4Hlk2rozz-3" target="ExoA8ng7ZrZ4Hlk2rozz-22">
          <mxGeometry width="50" height="50" relative="1" as="geometry">
            <mxPoint x="375" y="-60" as="sourcePoint" />
            <mxPoint x="425" y="-110" as="targetPoint" />
          </mxGeometry>
        </mxCell>
        <mxCell id="ExoA8ng7ZrZ4Hlk2rozz-26" value="&lt;font style=&quot;font-size: 18px;&quot;&gt;DonGia&lt;/font&gt;" style="ellipse;whiteSpace=wrap;html=1;fillColor=#fff2cc;strokeColor=#d6b656;" vertex="1" parent="1">
          <mxGeometry x="140" y="30" width="120" height="80" as="geometry" />
        </mxCell>
        <mxCell id="ExoA8ng7ZrZ4Hlk2rozz-27" value="&lt;font style=&quot;font-size: 18px;&quot;&gt;Ten_H&lt;/font&gt;" style="ellipse;whiteSpace=wrap;html=1;fillColor=#fff2cc;strokeColor=#d6b656;" vertex="1" parent="1">
          <mxGeometry x="210" y="120" width="120" height="80" as="geometry" />
        </mxCell>
        <mxCell id="ExoA8ng7ZrZ4Hlk2rozz-28" value="" style="endArrow=none;html=1;rounded=0;exitX=1;exitY=0.5;exitDx=0;exitDy=0;entryX=0.25;entryY=1;entryDx=0;entryDy=0;" edge="1" parent="1" source="ExoA8ng7ZrZ4Hlk2rozz-26" target="ExoA8ng7ZrZ4Hlk2rozz-4">
          <mxGeometry width="50" height="50" relative="1" as="geometry">
            <mxPoint x="130" y="80" as="sourcePoint" />
            <mxPoint x="180" y="30" as="targetPoint" />
          </mxGeometry>
        </mxCell>
        <mxCell id="ExoA8ng7ZrZ4Hlk2rozz-29" value="" style="endArrow=none;html=1;rounded=0;exitX=0.5;exitY=0;exitDx=0;exitDy=0;entryX=0.5;entryY=1;entryDx=0;entryDy=0;" edge="1" parent="1" source="ExoA8ng7ZrZ4Hlk2rozz-27" target="ExoA8ng7ZrZ4Hlk2rozz-4">
          <mxGeometry width="50" height="50" relative="1" as="geometry">
            <mxPoint x="420" y="220" as="sourcePoint" />
            <mxPoint x="280" y="80" as="targetPoint" />
          </mxGeometry>
        </mxCell>
        <mxCell id="ExoA8ng7ZrZ4Hlk2rozz-30" value="" style="endArrow=none;html=1;rounded=0;entryX=0.75;entryY=1;entryDx=0;entryDy=0;" edge="1" parent="1" source="ExoA8ng7ZrZ4Hlk2rozz-21" target="ExoA8ng7ZrZ4Hlk2rozz-4">
          <mxGeometry width="50" height="50" relative="1" as="geometry">
            <mxPoint x="210" y="90" as="sourcePoint" />
            <mxPoint x="260" y="40" as="targetPoint" />
          </mxGeometry>
        </mxCell>
        <mxCell id="ExoA8ng7ZrZ4Hlk2rozz-31" value="" style="edgeStyle=entityRelationEdgeStyle;fontSize=12;html=1;endArrow=ERmany;rounded=0;exitX=0;exitY=1;exitDx=0;exitDy=0;entryX=1;entryY=0.5;entryDx=0;entryDy=0;" edge="1" parent="1" source="ExoA8ng7ZrZ4Hlk2rozz-1" target="ExoA8ng7ZrZ4Hlk2rozz-2">
          <mxGeometry width="100" height="100" relative="1" as="geometry">
            <mxPoint x="310" y="120" as="sourcePoint" />
            <mxPoint x="410" y="20" as="targetPoint" />
          </mxGeometry>
        </mxCell>
        <mxCell id="ExoA8ng7ZrZ4Hlk2rozz-32" value="" style="fontSize=12;html=1;endArrow=ERoneToMany;rounded=0;entryX=0.5;entryY=0;entryDx=0;entryDy=0;exitX=0.5;exitY=1;exitDx=0;exitDy=0;edgeStyle=orthogonalEdgeStyle;" edge="1" parent="1" source="ExoA8ng7ZrZ4Hlk2rozz-1" target="ExoA8ng7ZrZ4Hlk2rozz-4">
          <mxGeometry width="100" height="100" relative="1" as="geometry">
            <mxPoint x="393.0000000000002" y="-70" as="sourcePoint" />
            <mxPoint x="383.0000000000002" y="90" as="targetPoint" />
          </mxGeometry>
        </mxCell>
        <mxCell id="ExoA8ng7ZrZ4Hlk2rozz-33" value="" style="edgeStyle=entityRelationEdgeStyle;fontSize=12;html=1;endArrow=ERoneToMany;rounded=0;exitX=1;exitY=1;exitDx=0;exitDy=0;" edge="1" parent="1" source="ExoA8ng7ZrZ4Hlk2rozz-1" target="ExoA8ng7ZrZ4Hlk2rozz-3">
          <mxGeometry width="100" height="100" relative="1" as="geometry">
            <mxPoint x="310" y="120" as="sourcePoint" />
            <mxPoint x="410" y="20" as="targetPoint" />
          </mxGeometry>
        </mxCell>
        <mxCell id="ExoA8ng7ZrZ4Hlk2rozz-34" value="&lt;font style=&quot;font-size: 18px;&quot;&gt;NgayHetHan&lt;/font&gt;" style="ellipse;whiteSpace=wrap;html=1;fillColor=#fff2cc;strokeColor=#d6b656;" vertex="1" parent="1">
          <mxGeometry x="665" y="-30" width="120" height="80" as="geometry" />
        </mxCell>
        <mxCell id="ExoA8ng7ZrZ4Hlk2rozz-35" value="" style="endArrow=none;html=1;rounded=0;entryX=0;entryY=0;entryDx=0;entryDy=0;exitX=0.75;exitY=1;exitDx=0;exitDy=0;" edge="1" parent="1" source="ExoA8ng7ZrZ4Hlk2rozz-3" target="ExoA8ng7ZrZ4Hlk2rozz-34">
          <mxGeometry width="50" height="50" relative="1" as="geometry">
            <mxPoint x="645" y="-95" as="sourcePoint" />
            <mxPoint x="705" y="-80" as="targetPoint" />
          </mxGeometry>
        </mxCell>
        <mxCell id="ExoA8ng7ZrZ4Hlk2rozz-36" value="&lt;font style=&quot;font-size: 18px;&quot;&gt;&lt;u&gt;Ma_NhanVien&lt;/u&gt;&lt;/font&gt;" style="ellipse;whiteSpace=wrap;html=1;fillColor=#fff2cc;strokeColor=#d6b656;" vertex="1" parent="1">
          <mxGeometry x="507.5" y="190" width="135" height="60" as="geometry" />
        </mxCell>
        <mxCell id="ExoA8ng7ZrZ4Hlk2rozz-37" value="&lt;font style=&quot;font-size: 18px;&quot;&gt;Ten_NhanVien&lt;/font&gt;" style="ellipse;whiteSpace=wrap;html=1;fillColor=#fff2cc;strokeColor=#d6b656;" vertex="1" parent="1">
          <mxGeometry x="370" y="195" width="120" height="60" as="geometry" />
        </mxCell>
        <mxCell id="ExoA8ng7ZrZ4Hlk2rozz-38" value="&lt;font style=&quot;font-size: 18px;&quot;&gt;Nhân viên&lt;/font&gt;" style="rounded=0;whiteSpace=wrap;html=1;fillColor=#f8cecc;strokeColor=#b85450;" vertex="1" parent="1">
          <mxGeometry x="555" y="110" width="110" height="50" as="geometry" />
        </mxCell>
        <mxCell id="ExoA8ng7ZrZ4Hlk2rozz-39" value="" style="endArrow=none;html=1;rounded=0;exitX=0.5;exitY=0;exitDx=0;exitDy=0;entryX=0.5;entryY=1;entryDx=0;entryDy=0;" edge="1" parent="1" source="ExoA8ng7ZrZ4Hlk2rozz-36" target="ExoA8ng7ZrZ4Hlk2rozz-38">
          <mxGeometry width="50" height="50" relative="1" as="geometry">
            <mxPoint x="542" y="147" as="sourcePoint" />
            <mxPoint x="605" y="210" as="targetPoint" />
          </mxGeometry>
        </mxCell>
        <mxCell id="ExoA8ng7ZrZ4Hlk2rozz-40" value="" style="endArrow=none;html=1;rounded=0;exitX=1;exitY=0;exitDx=0;exitDy=0;entryX=0.25;entryY=1;entryDx=0;entryDy=0;" edge="1" parent="1" source="ExoA8ng7ZrZ4Hlk2rozz-37" target="ExoA8ng7ZrZ4Hlk2rozz-38">
          <mxGeometry width="50" height="50" relative="1" as="geometry">
            <mxPoint x="515" y="225" as="sourcePoint" />
            <mxPoint x="605" y="210" as="targetPoint" />
          </mxGeometry>
        </mxCell>
        <mxCell id="ExoA8ng7ZrZ4Hlk2rozz-41" value="&lt;font style=&quot;font-size: 18px;&quot;&gt;BÁN&lt;/font&gt;" style="rhombus;whiteSpace=wrap;html=1;fillColor=#dae8fc;strokeColor=#6c8ebf;" vertex="1" parent="1">
          <mxGeometry x="795" y="180" width="120" height="80" as="geometry" />
        </mxCell>
        <mxCell id="ExoA8ng7ZrZ4Hlk2rozz-42" value="" style="endArrow=none;html=1;rounded=0;entryX=0;entryY=0.5;entryDx=0;entryDy=0;startArrow=ERoneToMany;startFill=0;exitX=1;exitY=0.5;exitDx=0;exitDy=0;" edge="1" parent="1" source="ExoA8ng7ZrZ4Hlk2rozz-38" target="ExoA8ng7ZrZ4Hlk2rozz-41">
          <mxGeometry width="50" height="50" relative="1" as="geometry">
            <mxPoint x="656" y="114" as="sourcePoint" />
            <mxPoint x="729" y="185" as="targetPoint" />
          </mxGeometry>
        </mxCell>
        <mxCell id="ExoA8ng7ZrZ4Hlk2rozz-44" value="&lt;font style=&quot;font-size: 18px;&quot;&gt;Món nước&lt;/font&gt;" style="rounded=0;whiteSpace=wrap;html=1;fillColor=#f8cecc;strokeColor=#b85450;" vertex="1" parent="1">
          <mxGeometry x="975" y="270" width="110" height="50" as="geometry" />
        </mxCell>
        <mxCell id="ExoA8ng7ZrZ4Hlk2rozz-46" value="" style="endArrow=none;html=1;rounded=0;entryX=1;entryY=1;entryDx=0;entryDy=0;startArrow=ERoneToMany;startFill=0;exitX=0;exitY=0.5;exitDx=0;exitDy=0;" edge="1" parent="1" source="ExoA8ng7ZrZ4Hlk2rozz-44" target="ExoA8ng7ZrZ4Hlk2rozz-41">
          <mxGeometry width="50" height="50" relative="1" as="geometry">
            <mxPoint x="985" y="175" as="sourcePoint" />
            <mxPoint x="895" y="210" as="targetPoint" />
          </mxGeometry>
        </mxCell>
        <mxCell id="ExoA8ng7ZrZ4Hlk2rozz-47" value="&lt;font style=&quot;font-size: 18px;&quot;&gt;SoBan&lt;/font&gt;" style="ellipse;whiteSpace=wrap;html=1;fillColor=#fff2cc;strokeColor=#d6b656;" vertex="1" parent="1">
          <mxGeometry x="1155" y="135" width="120" height="60" as="geometry" />
        </mxCell>
        <mxCell id="ExoA8ng7ZrZ4Hlk2rozz-48" value="&lt;u&gt;&lt;font style=&quot;font-size: 18px;&quot;&gt;MaMon&lt;/font&gt;&lt;/u&gt;" style="ellipse;whiteSpace=wrap;html=1;fillColor=#fff2cc;strokeColor=#d6b656;" vertex="1" parent="1">
          <mxGeometry x="1155" y="240" width="120" height="60" as="geometry" />
        </mxCell>
        <mxCell id="ExoA8ng7ZrZ4Hlk2rozz-49" value="&lt;font style=&quot;font-size: 18px;&quot;&gt;TenMon&lt;/font&gt;" style="ellipse;whiteSpace=wrap;html=1;fillColor=#fff2cc;strokeColor=#d6b656;" vertex="1" parent="1">
          <mxGeometry x="1130" y="360" width="120" height="60" as="geometry" />
        </mxCell>
        <mxCell id="ExoA8ng7ZrZ4Hlk2rozz-51" value="" style="endArrow=none;html=1;rounded=0;entryX=0;entryY=0.5;entryDx=0;entryDy=0;exitX=1;exitY=0.5;exitDx=0;exitDy=0;" edge="1" parent="1" source="ExoA8ng7ZrZ4Hlk2rozz-44" target="ExoA8ng7ZrZ4Hlk2rozz-48">
          <mxGeometry width="50" height="50" relative="1" as="geometry">
            <mxPoint x="1095" y="260" as="sourcePoint" />
            <mxPoint x="1168" y="266" as="targetPoint" />
          </mxGeometry>
        </mxCell>
        <mxCell id="ExoA8ng7ZrZ4Hlk2rozz-52" value="" style="endArrow=none;html=1;rounded=0;entryX=0.433;entryY=0.033;entryDx=0;entryDy=0;exitX=1;exitY=0.5;exitDx=0;exitDy=0;entryPerimeter=0;" edge="1" parent="1" source="ExoA8ng7ZrZ4Hlk2rozz-44" target="ExoA8ng7ZrZ4Hlk2rozz-49">
          <mxGeometry width="50" height="50" relative="1" as="geometry">
            <mxPoint x="1095" y="340" as="sourcePoint" />
            <mxPoint x="1165" y="340" as="targetPoint" />
          </mxGeometry>
        </mxCell>
        <mxCell id="ExoA8ng7ZrZ4Hlk2rozz-53" value="&lt;font style=&quot;font-size: 18px;&quot;&gt;&lt;u&gt;Ma_HD_BanHang&lt;/u&gt;&lt;/font&gt;" style="ellipse;whiteSpace=wrap;html=1;fillColor=#fff2cc;strokeColor=#d6b656;" vertex="1" parent="1">
          <mxGeometry x="770" y="60" width="170" height="60" as="geometry" />
        </mxCell>
        <mxCell id="ExoA8ng7ZrZ4Hlk2rozz-54" value="&lt;font style=&quot;font-size: 18px;&quot;&gt;NgayThanhToan&lt;/font&gt;" style="ellipse;whiteSpace=wrap;html=1;fillColor=#fff2cc;strokeColor=#d6b656;" vertex="1" parent="1">
          <mxGeometry x="955" y="50" width="150" height="60" as="geometry" />
        </mxCell>
        <mxCell id="ExoA8ng7ZrZ4Hlk2rozz-55" value="" style="endArrow=none;html=1;rounded=0;entryX=0.5;entryY=0;entryDx=0;entryDy=0;exitX=0.5;exitY=1;exitDx=0;exitDy=0;" edge="1" parent="1" source="ExoA8ng7ZrZ4Hlk2rozz-53" target="ExoA8ng7ZrZ4Hlk2rozz-41">
          <mxGeometry width="50" height="50" relative="1" as="geometry">
            <mxPoint x="692" y="100" as="sourcePoint" />
            <mxPoint x="765" y="171" as="targetPoint" />
          </mxGeometry>
        </mxCell>
        <mxCell id="ExoA8ng7ZrZ4Hlk2rozz-56" value="" style="endArrow=none;html=1;rounded=0;exitX=0;exitY=1;exitDx=0;exitDy=0;" edge="1" parent="1" source="ExoA8ng7ZrZ4Hlk2rozz-54" target="ExoA8ng7ZrZ4Hlk2rozz-41">
          <mxGeometry width="50" height="50" relative="1" as="geometry">
            <mxPoint x="795" y="64" as="sourcePoint" />
            <mxPoint x="906" y="180" as="targetPoint" />
          </mxGeometry>
        </mxCell>
        <mxCell id="ExoA8ng7ZrZ4Hlk2rozz-59" value="&lt;font style=&quot;font-size: 18px;&quot;&gt;PhuongThucThanhToan&lt;/font&gt;" style="ellipse;whiteSpace=wrap;html=1;fillColor=#fff2cc;strokeColor=#d6b656;" vertex="1" parent="1">
          <mxGeometry x="730" y="320" width="200" height="70" as="geometry" />
        </mxCell>
        <mxCell id="ExoA8ng7ZrZ4Hlk2rozz-62" value="" style="endArrow=none;html=1;rounded=0;exitX=0.308;exitY=0;exitDx=0;exitDy=0;exitPerimeter=0;" edge="1" parent="1" source="ExoA8ng7ZrZ4Hlk2rozz-59">
          <mxGeometry width="50" height="50" relative="1" as="geometry">
            <mxPoint x="875" y="380" as="sourcePoint" />
            <mxPoint x="855" y="260" as="targetPoint" />
          </mxGeometry>
        </mxCell>
        <mxCell id="ExoA8ng7ZrZ4Hlk2rozz-63" value="&lt;font style=&quot;font-size: 18px;&quot;&gt;DonGia&lt;/font&gt;" style="ellipse;whiteSpace=wrap;html=1;fillColor=#fff2cc;strokeColor=#d6b656;" vertex="1" parent="1">
          <mxGeometry x="990" y="370" width="120" height="60" as="geometry" />
        </mxCell>
        <mxCell id="ExoA8ng7ZrZ4Hlk2rozz-64" value="" style="endArrow=none;html=1;rounded=0;entryX=0.5;entryY=0;entryDx=0;entryDy=0;exitX=0.75;exitY=1;exitDx=0;exitDy=0;" edge="1" parent="1" source="ExoA8ng7ZrZ4Hlk2rozz-44" target="ExoA8ng7ZrZ4Hlk2rozz-63">
          <mxGeometry width="50" height="50" relative="1" as="geometry">
            <mxPoint x="1050" y="520" as="sourcePoint" />
            <mxPoint x="1187" y="547" as="targetPoint" />
          </mxGeometry>
        </mxCell>
        <mxCell id="ExoA8ng7ZrZ4Hlk2rozz-65" value="" style="endArrow=none;html=1;rounded=0;entryX=0.6;entryY=0.875;entryDx=0;entryDy=0;startArrow=ERoneToMany;startFill=0;exitX=0.5;exitY=0;exitDx=0;exitDy=0;edgeStyle=orthogonalEdgeStyle;entryPerimeter=0;" edge="1" parent="1" source="ExoA8ng7ZrZ4Hlk2rozz-38" target="ExoA8ng7ZrZ4Hlk2rozz-1">
          <mxGeometry width="50" height="50" relative="1" as="geometry">
            <mxPoint x="480" as="sourcePoint" />
            <mxPoint x="610" y="85" as="targetPoint" />
            <Array as="points">
              <mxPoint x="610" y="-50" />
              <mxPoint x="410" y="-50" />
            </Array>
          </mxGeometry>
        </mxCell>
        <mxCell id="ZpzemveyNIWSDa6YtjMn-2" value="" style="endArrow=none;html=1;rounded=0;exitX=0;exitY=0.5;exitDx=0;exitDy=0;entryX=1;entryY=0.5;entryDx=0;entryDy=0;" edge="1" parent="1" source="ExoA8ng7ZrZ4Hlk2rozz-47" target="ExoA8ng7ZrZ4Hlk2rozz-41">
          <mxGeometry width="50" height="50" relative="1" as="geometry">
            <mxPoint x="1040" y="170" as="sourcePoint" />
            <mxPoint x="942" y="265" as="targetPoint" />
          </mxGeometry>
        </mxCell>
        <mxCell id="4Z0-ojZitnn_dBmHJXiM-1" value="&lt;font style=&quot;font-size: 18px;&quot;&gt;SDT_NV&lt;/font&gt;" style="ellipse;whiteSpace=wrap;html=1;fillColor=#fff2cc;strokeColor=#d6b656;" vertex="1" parent="1">
          <mxGeometry x="642.5" y="230" width="135" height="60" as="geometry" />
        </mxCell>
        <mxCell id="4Z0-ojZitnn_dBmHJXiM-4" value="" style="endArrow=none;html=1;rounded=0;exitX=0.5;exitY=0;exitDx=0;exitDy=0;entryX=0.75;entryY=1;entryDx=0;entryDy=0;" edge="1" parent="1" source="4Z0-ojZitnn_dBmHJXiM-1" target="ExoA8ng7ZrZ4Hlk2rozz-38">
          <mxGeometry width="50" height="50" relative="1" as="geometry">
            <mxPoint x="585" y="200" as="sourcePoint" />
            <mxPoint x="620" y="170" as="targetPoint" />
          </mxGeometry>
        </mxCell>
        <mxCell id="EH-tyn0YKat786Pbu8q4-1" value="&lt;font style=&quot;font-size: 18px;&quot;&gt;TaiKhoan&lt;/font&gt;" style="rounded=0;whiteSpace=wrap;html=1;fillColor=#f8cecc;strokeColor=#b85450;" vertex="1" parent="1">
          <mxGeometry x="1070" y="-80" width="120" height="60" as="geometry" />
        </mxCell>
        <mxCell id="EH-tyn0YKat786Pbu8q4-2" value="&lt;span style=&quot;font-size: 18px;&quot;&gt;&lt;u&gt;Ten_DN&lt;/u&gt;&lt;/span&gt;" style="ellipse;whiteSpace=wrap;html=1;fillColor=#fff2cc;strokeColor=#d6b656;" vertex="1" parent="1">
          <mxGeometry x="915" y="-170" width="120" height="80" as="geometry" />
        </mxCell>
        <mxCell id="EH-tyn0YKat786Pbu8q4-3" value="&lt;font style=&quot;font-size: 18px;&quot;&gt;MatKhau&lt;/font&gt;" style="ellipse;whiteSpace=wrap;html=1;fillColor=#fff2cc;strokeColor=#d6b656;" vertex="1" parent="1">
          <mxGeometry x="1060" y="-230" width="120" height="80" as="geometry" />
        </mxCell>
        <mxCell id="EH-tyn0YKat786Pbu8q4-4" value="&lt;font style=&quot;font-size: 18px;&quot;&gt;Quyen&lt;/font&gt;" style="ellipse;whiteSpace=wrap;html=1;fillColor=#fff2cc;strokeColor=#d6b656;" vertex="1" parent="1">
          <mxGeometry x="1210" y="-190" width="120" height="80" as="geometry" />
        </mxCell>
        <mxCell id="EH-tyn0YKat786Pbu8q4-5" value="" style="endArrow=none;html=1;rounded=0;entryX=0.25;entryY=0;entryDx=0;entryDy=0;exitX=1;exitY=1;exitDx=0;exitDy=0;" edge="1" parent="1" source="EH-tyn0YKat786Pbu8q4-2" target="EH-tyn0YKat786Pbu8q4-1">
          <mxGeometry width="50" height="50" relative="1" as="geometry">
            <mxPoint x="615" y="-80" as="sourcePoint" />
            <mxPoint x="693" y="-8" as="targetPoint" />
          </mxGeometry>
        </mxCell>
        <mxCell id="EH-tyn0YKat786Pbu8q4-6" value="" style="endArrow=none;html=1;rounded=0;entryX=0.5;entryY=0;entryDx=0;entryDy=0;exitX=0.5;exitY=1;exitDx=0;exitDy=0;" edge="1" parent="1" source="EH-tyn0YKat786Pbu8q4-3" target="EH-tyn0YKat786Pbu8q4-1">
          <mxGeometry width="50" height="50" relative="1" as="geometry">
            <mxPoint x="625" y="-70" as="sourcePoint" />
            <mxPoint x="703" y="2" as="targetPoint" />
          </mxGeometry>
        </mxCell>
        <mxCell id="EH-tyn0YKat786Pbu8q4-7" value="" style="endArrow=none;html=1;rounded=0;entryX=0.75;entryY=0;entryDx=0;entryDy=0;exitX=0;exitY=1;exitDx=0;exitDy=0;" edge="1" parent="1" source="EH-tyn0YKat786Pbu8q4-4" target="EH-tyn0YKat786Pbu8q4-1">
          <mxGeometry width="50" height="50" relative="1" as="geometry">
            <mxPoint x="1130" y="-140" as="sourcePoint" />
            <mxPoint x="1140" y="-70" as="targetPoint" />
          </mxGeometry>
        </mxCell>
      </root>
    </mxGraphModel>
  </diagram>
  <diagram id="XGH7xEOivQokHVylsm2b" name="Trang-3">
    <mxGraphModel grid="1" page="1" gridSize="10" guides="1" tooltips="1" connect="1" arrows="1" fold="1" pageScale="1" pageWidth="827" pageHeight="1169" math="0" shadow="0">
      <root>
        <mxCell id="0" />
        <mxCell id="1" parent="0" />
        <mxCell id="UYqGNDuuVqBHYGy7aTR4-1" value="Nhap" style="rhombus;whiteSpace=wrap;html=1;fillColor=#dae8fc;strokeColor=#6c8ebf;" vertex="1" parent="1">
          <mxGeometry x="350" y="-150" width="100" height="80" as="geometry" />
        </mxCell>
        <mxCell id="UYqGNDuuVqBHYGy7aTR4-2" value="NhaCungCap" style="rounded=0;whiteSpace=wrap;html=1;fillColor=#f8cecc;strokeColor=#b85450;" vertex="1" parent="1">
          <mxGeometry x="130" y="-70" width="120" height="60" as="geometry" />
        </mxCell>
        <mxCell id="UYqGNDuuVqBHYGy7aTR4-3" value="No" style="rounded=0;whiteSpace=wrap;html=1;fillColor=#f8cecc;strokeColor=#b85450;" vertex="1" parent="1">
          <mxGeometry x="560" y="-90" width="120" height="60" as="geometry" />
        </mxCell>
        <mxCell id="UYqGNDuuVqBHYGy7aTR4-4" value="Hang" style="rounded=0;whiteSpace=wrap;html=1;fillColor=#f8cecc;strokeColor=#b85450;" vertex="1" parent="1">
          <mxGeometry x="420" y="10" width="120" height="60" as="geometry" />
        </mxCell>
        <mxCell id="UYqGNDuuVqBHYGy7aTR4-5" value="&lt;u&gt;Ma_NCC&lt;/u&gt;" style="ellipse;whiteSpace=wrap;html=1;fillColor=#fff2cc;strokeColor=#d6b656;" vertex="1" parent="1">
          <mxGeometry x="10" y="-170" width="120" height="80" as="geometry" />
        </mxCell>
        <mxCell id="UYqGNDuuVqBHYGy7aTR4-6" value="Ten_NCC" style="ellipse;whiteSpace=wrap;html=1;fillColor=#fff2cc;strokeColor=#d6b656;" vertex="1" parent="1">
          <mxGeometry x="-60" y="-80" width="120" height="80" as="geometry" />
        </mxCell>
        <mxCell id="UYqGNDuuVqBHYGy7aTR4-7" value="" style="endArrow=none;html=1;rounded=0;entryX=1;entryY=1;entryDx=0;entryDy=0;exitX=0.5;exitY=0;exitDx=0;exitDy=0;" edge="1" parent="1" source="UYqGNDuuVqBHYGy7aTR4-2" target="UYqGNDuuVqBHYGy7aTR4-5">
          <mxGeometry width="50" height="50" relative="1" as="geometry">
            <mxPoint x="280" y="-30" as="sourcePoint" />
            <mxPoint x="330" y="-80" as="targetPoint" />
          </mxGeometry>
        </mxCell>
        <mxCell id="UYqGNDuuVqBHYGy7aTR4-8" value="" style="endArrow=none;html=1;rounded=0;exitX=1;exitY=0.5;exitDx=0;exitDy=0;entryX=0;entryY=0.5;entryDx=0;entryDy=0;" edge="1" parent="1" source="UYqGNDuuVqBHYGy7aTR4-6" target="UYqGNDuuVqBHYGy7aTR4-2">
          <mxGeometry width="50" height="50" relative="1" as="geometry">
            <mxPoint x="-0.0035931288072603706" y="48.284271247461675" as="sourcePoint" />
            <mxPoint x="297.57" y="-10" as="targetPoint" />
          </mxGeometry>
        </mxCell>
        <mxCell id="UYqGNDuuVqBHYGy7aTR4-9" value="DiaChi_CC" style="ellipse;whiteSpace=wrap;html=1;fillColor=#fff2cc;strokeColor=#d6b656;" vertex="1" parent="1">
          <mxGeometry x="-30" y="10" width="120" height="80" as="geometry" />
        </mxCell>
        <mxCell id="UYqGNDuuVqBHYGy7aTR4-10" value="SDT_NCC" style="ellipse;whiteSpace=wrap;html=1;fillColor=#fff2cc;strokeColor=#d6b656;" vertex="1" parent="1">
          <mxGeometry x="80" y="70" width="120" height="80" as="geometry" />
        </mxCell>
        <mxCell id="UYqGNDuuVqBHYGy7aTR4-11" value="" style="endArrow=none;html=1;rounded=0;exitX=1;exitY=0;exitDx=0;exitDy=0;entryX=0;entryY=1;entryDx=0;entryDy=0;" edge="1" parent="1" source="UYqGNDuuVqBHYGy7aTR4-9" target="UYqGNDuuVqBHYGy7aTR4-2">
          <mxGeometry width="50" height="50" relative="1" as="geometry">
            <mxPoint x="130" y="40" as="sourcePoint" />
            <mxPoint x="210" y="50" as="targetPoint" />
          </mxGeometry>
        </mxCell>
        <mxCell id="UYqGNDuuVqBHYGy7aTR4-12" value="" style="endArrow=none;html=1;rounded=0;exitX=0.5;exitY=0;exitDx=0;exitDy=0;entryX=0.5;entryY=1;entryDx=0;entryDy=0;" edge="1" parent="1" source="UYqGNDuuVqBHYGy7aTR4-10" target="UYqGNDuuVqBHYGy7aTR4-2">
          <mxGeometry width="50" height="50" relative="1" as="geometry">
            <mxPoint x="70" y="-30" as="sourcePoint" />
            <mxPoint x="150" y="-20" as="targetPoint" />
          </mxGeometry>
        </mxCell>
        <mxCell id="UYqGNDuuVqBHYGy7aTR4-13" value="NgayNhap" style="ellipse;whiteSpace=wrap;html=1;fillColor=#fff2cc;strokeColor=#d6b656;" vertex="1" parent="1">
          <mxGeometry x="480" y="-270" width="120" height="80" as="geometry" />
        </mxCell>
        <mxCell id="UYqGNDuuVqBHYGy7aTR4-14" value="&lt;u&gt;Ma_HD_Nhap&lt;/u&gt;" style="ellipse;whiteSpace=wrap;html=1;fillColor=#fff2cc;strokeColor=#d6b656;" vertex="1" parent="1">
          <mxGeometry x="210" y="-260" width="120" height="80" as="geometry" />
        </mxCell>
        <mxCell id="UYqGNDuuVqBHYGy7aTR4-17" value="" style="endArrow=none;html=1;rounded=0;entryX=1;entryY=1;entryDx=0;entryDy=0;exitX=0;exitY=0;exitDx=0;exitDy=0;" edge="1" parent="1" source="UYqGNDuuVqBHYGy7aTR4-1" target="UYqGNDuuVqBHYGy7aTR4-14">
          <mxGeometry width="50" height="50" relative="1" as="geometry">
            <mxPoint x="410" y="-150" as="sourcePoint" />
            <mxPoint x="490" y="-260" as="targetPoint" />
          </mxGeometry>
        </mxCell>
        <mxCell id="UYqGNDuuVqBHYGy7aTR4-18" value="" style="endArrow=none;html=1;rounded=0;entryX=0;entryY=1;entryDx=0;entryDy=0;exitX=1;exitY=0;exitDx=0;exitDy=0;" edge="1" parent="1" source="UYqGNDuuVqBHYGy7aTR4-1" target="UYqGNDuuVqBHYGy7aTR4-13">
          <mxGeometry width="50" height="50" relative="1" as="geometry">
            <mxPoint x="440" y="-210" as="sourcePoint" />
            <mxPoint x="490" y="-260" as="targetPoint" />
          </mxGeometry>
        </mxCell>
        <mxCell id="UYqGNDuuVqBHYGy7aTR4-21" value="&lt;u&gt;Ma_H&lt;/u&gt;" style="ellipse;whiteSpace=wrap;html=1;fillColor=#fff2cc;strokeColor=#d6b656;" vertex="1" parent="1">
          <mxGeometry x="560" y="90" width="120" height="80" as="geometry" />
        </mxCell>
        <mxCell id="UYqGNDuuVqBHYGy7aTR4-22" value="Tien_No" style="ellipse;whiteSpace=wrap;html=1;fillColor=#fff2cc;strokeColor=#d6b656;" vertex="1" parent="1">
          <mxGeometry x="740" y="-70" width="120" height="80" as="geometry" />
        </mxCell>
        <mxCell id="UYqGNDuuVqBHYGy7aTR4-23" value="&lt;u&gt;Ma_HD_No&lt;/u&gt;" style="ellipse;whiteSpace=wrap;html=1;fillColor=#fff2cc;strokeColor=#d6b656;" vertex="1" parent="1">
          <mxGeometry x="730" y="-160" width="120" height="80" as="geometry" />
        </mxCell>
        <mxCell id="UYqGNDuuVqBHYGy7aTR4-24" value="" style="endArrow=none;html=1;rounded=0;entryX=0;entryY=0.5;entryDx=0;entryDy=0;exitX=1;exitY=0.25;exitDx=0;exitDy=0;" edge="1" parent="1" source="UYqGNDuuVqBHYGy7aTR4-3" target="UYqGNDuuVqBHYGy7aTR4-23">
          <mxGeometry width="50" height="50" relative="1" as="geometry">
            <mxPoint x="420" as="sourcePoint" />
            <mxPoint x="470" y="-50" as="targetPoint" />
          </mxGeometry>
        </mxCell>
        <mxCell id="UYqGNDuuVqBHYGy7aTR4-25" value="" style="endArrow=none;html=1;rounded=0;entryX=0;entryY=0.5;entryDx=0;entryDy=0;exitX=1;exitY=0.75;exitDx=0;exitDy=0;" edge="1" parent="1" source="UYqGNDuuVqBHYGy7aTR4-3" target="UYqGNDuuVqBHYGy7aTR4-22">
          <mxGeometry width="50" height="50" relative="1" as="geometry">
            <mxPoint x="420" as="sourcePoint" />
            <mxPoint x="470" y="-50" as="targetPoint" />
          </mxGeometry>
        </mxCell>
        <mxCell id="UYqGNDuuVqBHYGy7aTR4-26" value="DonGia" style="ellipse;whiteSpace=wrap;html=1;fillColor=#fff2cc;strokeColor=#d6b656;" vertex="1" parent="1">
          <mxGeometry x="270" y="110" width="120" height="80" as="geometry" />
        </mxCell>
        <mxCell id="UYqGNDuuVqBHYGy7aTR4-27" value="Ten_H" style="ellipse;whiteSpace=wrap;html=1;fillColor=#fff2cc;strokeColor=#d6b656;" vertex="1" parent="1">
          <mxGeometry x="410" y="130" width="120" height="80" as="geometry" />
        </mxCell>
        <mxCell id="UYqGNDuuVqBHYGy7aTR4-28" value="" style="endArrow=none;html=1;rounded=0;exitX=0.5;exitY=0;exitDx=0;exitDy=0;entryX=0.25;entryY=1;entryDx=0;entryDy=0;" edge="1" parent="1" source="UYqGNDuuVqBHYGy7aTR4-26" target="UYqGNDuuVqBHYGy7aTR4-4">
          <mxGeometry width="50" height="50" relative="1" as="geometry">
            <mxPoint x="260" y="90" as="sourcePoint" />
            <mxPoint x="310" y="40" as="targetPoint" />
          </mxGeometry>
        </mxCell>
        <mxCell id="UYqGNDuuVqBHYGy7aTR4-29" value="" style="endArrow=none;html=1;rounded=0;exitX=0.5;exitY=0;exitDx=0;exitDy=0;entryX=0.5;entryY=1;entryDx=0;entryDy=0;" edge="1" parent="1" source="UYqGNDuuVqBHYGy7aTR4-27" target="UYqGNDuuVqBHYGy7aTR4-4">
          <mxGeometry width="50" height="50" relative="1" as="geometry">
            <mxPoint x="550" y="230" as="sourcePoint" />
            <mxPoint x="410" y="90" as="targetPoint" />
          </mxGeometry>
        </mxCell>
        <mxCell id="UYqGNDuuVqBHYGy7aTR4-30" value="" style="endArrow=none;html=1;rounded=0;entryX=0.75;entryY=1;entryDx=0;entryDy=0;" edge="1" parent="1" source="UYqGNDuuVqBHYGy7aTR4-21" target="UYqGNDuuVqBHYGy7aTR4-4">
          <mxGeometry width="50" height="50" relative="1" as="geometry">
            <mxPoint x="340" y="100" as="sourcePoint" />
            <mxPoint x="390" y="50" as="targetPoint" />
          </mxGeometry>
        </mxCell>
        <mxCell id="UYqGNDuuVqBHYGy7aTR4-31" value="" style="edgeStyle=entityRelationEdgeStyle;fontSize=12;html=1;endArrow=ERmany;rounded=0;exitX=0;exitY=1;exitDx=0;exitDy=0;entryX=1;entryY=0.5;entryDx=0;entryDy=0;" edge="1" parent="1" source="UYqGNDuuVqBHYGy7aTR4-1" target="UYqGNDuuVqBHYGy7aTR4-2">
          <mxGeometry width="100" height="100" relative="1" as="geometry">
            <mxPoint x="310" y="120" as="sourcePoint" />
            <mxPoint x="410" y="20" as="targetPoint" />
          </mxGeometry>
        </mxCell>
        <mxCell id="UYqGNDuuVqBHYGy7aTR4-32" value="" style="fontSize=12;html=1;endArrow=ERoneToMany;rounded=0;entryX=0.5;entryY=0;entryDx=0;entryDy=0;exitX=0.5;exitY=1;exitDx=0;exitDy=0;edgeStyle=orthogonalEdgeStyle;" edge="1" parent="1" source="UYqGNDuuVqBHYGy7aTR4-1" target="UYqGNDuuVqBHYGy7aTR4-4">
          <mxGeometry width="100" height="100" relative="1" as="geometry">
            <mxPoint x="393.0000000000002" y="-70" as="sourcePoint" />
            <mxPoint x="383.0000000000002" y="90" as="targetPoint" />
          </mxGeometry>
        </mxCell>
        <mxCell id="UYqGNDuuVqBHYGy7aTR4-33" value="" style="edgeStyle=entityRelationEdgeStyle;fontSize=12;html=1;endArrow=ERoneToMany;rounded=0;exitX=1;exitY=1;exitDx=0;exitDy=0;" edge="1" parent="1" source="UYqGNDuuVqBHYGy7aTR4-1" target="UYqGNDuuVqBHYGy7aTR4-3">
          <mxGeometry width="100" height="100" relative="1" as="geometry">
            <mxPoint x="310" y="120" as="sourcePoint" />
            <mxPoint x="410" y="20" as="targetPoint" />
          </mxGeometry>
        </mxCell>
        <mxCell id="UYqGNDuuVqBHYGy7aTR4-34" value="NgayHetHan" style="ellipse;whiteSpace=wrap;html=1;fillColor=#fff2cc;strokeColor=#d6b656;" vertex="1" parent="1">
          <mxGeometry x="710" y="30" width="120" height="80" as="geometry" />
        </mxCell>
        <mxCell id="UYqGNDuuVqBHYGy7aTR4-35" value="" style="endArrow=none;html=1;rounded=0;entryX=0;entryY=0;entryDx=0;entryDy=0;exitX=0.75;exitY=1;exitDx=0;exitDy=0;" edge="1" parent="1" source="UYqGNDuuVqBHYGy7aTR4-3" target="UYqGNDuuVqBHYGy7aTR4-34">
          <mxGeometry width="50" height="50" relative="1" as="geometry">
            <mxPoint x="690" y="-35" as="sourcePoint" />
            <mxPoint x="750" y="-20" as="targetPoint" />
          </mxGeometry>
        </mxCell>
      </root>
    </mxGraphModel>
  </diagram>
  <diagram id="MGFwQTG1dmDwMqNVLGuE" name="Page-4">
    <mxGraphModel grid="1" page="1" gridSize="10" guides="1" tooltips="1" connect="1" arrows="1" fold="1" pageScale="1" pageWidth="850" pageHeight="1100" math="0" shadow="0">
      <root>
        <mxCell id="0" />
        <mxCell id="1" parent="0" />
        <mxCell id="Uqui51nLkP_MbrxXVu64-1" value="&lt;u&gt;MaMon&lt;/u&gt;" style="ellipse;whiteSpace=wrap;html=1;fillColor=#fff2cc;strokeColor=#d6b656;" vertex="1" parent="1">
          <mxGeometry x="130" y="130" width="120" height="60" as="geometry" />
        </mxCell>
        <mxCell id="Uqui51nLkP_MbrxXVu64-2" value="TenMon" style="ellipse;whiteSpace=wrap;html=1;fillColor=#fff2cc;strokeColor=#d6b656;" vertex="1" parent="1">
          <mxGeometry x="70" y="235" width="120" height="60" as="geometry" />
        </mxCell>
        <mxCell id="Uqui51nLkP_MbrxXVu64-3" value="DonGia" style="ellipse;whiteSpace=wrap;html=1;fillColor=#fff2cc;strokeColor=#d6b656;" vertex="1" parent="1">
          <mxGeometry x="110" y="340" width="120" height="60" as="geometry" />
        </mxCell>
        <mxCell id="Uqui51nLkP_MbrxXVu64-4" value="Món Nước" style="rounded=0;whiteSpace=wrap;html=1;fillColor=#f8cecc;strokeColor=#b85450;" vertex="1" parent="1">
          <mxGeometry x="290" y="245" width="110" height="50" as="geometry" />
        </mxCell>
        <mxCell id="Uqui51nLkP_MbrxXVu64-5" value="" style="endArrow=none;html=1;rounded=0;entryX=0;entryY=0.25;entryDx=0;entryDy=0;" edge="1" parent="1" source="Uqui51nLkP_MbrxXVu64-1" target="Uqui51nLkP_MbrxXVu64-4">
          <mxGeometry width="50" height="50" relative="1" as="geometry">
            <mxPoint x="390" y="370" as="sourcePoint" />
            <mxPoint x="440" y="320" as="targetPoint" />
          </mxGeometry>
        </mxCell>
        <mxCell id="Uqui51nLkP_MbrxXVu64-6" value="" style="endArrow=none;html=1;rounded=0;exitX=1;exitY=0.5;exitDx=0;exitDy=0;" edge="1" parent="1" source="Uqui51nLkP_MbrxXVu64-2">
          <mxGeometry width="50" height="50" relative="1" as="geometry">
            <mxPoint x="227" y="197" as="sourcePoint" />
            <mxPoint x="290" y="260" as="targetPoint" />
          </mxGeometry>
        </mxCell>
        <mxCell id="Uqui51nLkP_MbrxXVu64-7" value="" style="endArrow=none;html=1;rounded=0;exitX=1;exitY=0;exitDx=0;exitDy=0;" edge="1" parent="1" source="Uqui51nLkP_MbrxXVu64-3">
          <mxGeometry width="50" height="50" relative="1" as="geometry">
            <mxPoint x="200" y="275" as="sourcePoint" />
            <mxPoint x="290" y="260" as="targetPoint" />
          </mxGeometry>
        </mxCell>
        <mxCell id="Uqui51nLkP_MbrxXVu64-8" value="BÁN" style="rhombus;whiteSpace=wrap;html=1;fillColor=#dae8fc;strokeColor=#6c8ebf;" vertex="1" parent="1">
          <mxGeometry x="480" y="230" width="120" height="80" as="geometry" />
        </mxCell>
        <mxCell id="Uqui51nLkP_MbrxXVu64-9" value="" style="endArrow=none;html=1;rounded=0;entryX=0;entryY=0.5;entryDx=0;entryDy=0;startArrow=ERoneToMany;startFill=0;exitX=1;exitY=0.5;exitDx=0;exitDy=0;" edge="1" parent="1" source="Uqui51nLkP_MbrxXVu64-4" target="Uqui51nLkP_MbrxXVu64-8">
          <mxGeometry width="50" height="50" relative="1" as="geometry">
            <mxPoint x="341" y="164" as="sourcePoint" />
            <mxPoint x="414" y="235" as="targetPoint" />
          </mxGeometry>
        </mxCell>
        <mxCell id="Uqui51nLkP_MbrxXVu64-11" value="NhanVien" style="rounded=0;whiteSpace=wrap;html=1;fillColor=#f8cecc;strokeColor=#b85450;" vertex="1" parent="1">
          <mxGeometry x="660" y="320" width="110" height="50" as="geometry" />
        </mxCell>
        <mxCell id="Uqui51nLkP_MbrxXVu64-13" value="" style="endArrow=none;html=1;rounded=0;entryX=1;entryY=1;entryDx=0;entryDy=0;startArrow=ERoneToMany;startFill=0;exitX=0;exitY=0.5;exitDx=0;exitDy=0;" edge="1" parent="1" source="Uqui51nLkP_MbrxXVu64-11" target="Uqui51nLkP_MbrxXVu64-8">
          <mxGeometry width="50" height="50" relative="1" as="geometry">
            <mxPoint x="670" y="225" as="sourcePoint" />
            <mxPoint x="580" y="260" as="targetPoint" />
          </mxGeometry>
        </mxCell>
        <mxCell id="Uqui51nLkP_MbrxXVu64-14" value="SoBan" style="ellipse;whiteSpace=wrap;html=1;fillColor=#fff2cc;strokeColor=#d6b656;" vertex="1" parent="1">
          <mxGeometry x="750" y="150" width="120" height="60" as="geometry" />
        </mxCell>
        <mxCell id="Uqui51nLkP_MbrxXVu64-15" value="&lt;u&gt;Ma_NhanVien&lt;/u&gt;" style="ellipse;whiteSpace=wrap;html=1;fillColor=#fff2cc;strokeColor=#d6b656;" vertex="1" parent="1">
          <mxGeometry x="840" y="315" width="120" height="60" as="geometry" />
        </mxCell>
        <mxCell id="Uqui51nLkP_MbrxXVu64-16" value="Ten_NhanVien" style="ellipse;whiteSpace=wrap;html=1;fillColor=#fff2cc;strokeColor=#d6b656;" vertex="1" parent="1">
          <mxGeometry x="790" y="420" width="120" height="60" as="geometry" />
        </mxCell>
        <mxCell id="Uqui51nLkP_MbrxXVu64-17" value="" style="endArrow=none;html=1;rounded=0;entryX=0;entryY=0.5;entryDx=0;entryDy=0;exitX=0.817;exitY=0.308;exitDx=0;exitDy=0;exitPerimeter=0;" edge="1" parent="1" source="Uqui51nLkP_MbrxXVu64-8" target="Uqui51nLkP_MbrxXVu64-14">
          <mxGeometry width="50" height="50" relative="1" as="geometry">
            <mxPoint x="770" y="215" as="sourcePoint" />
            <mxPoint x="843" y="221" as="targetPoint" />
          </mxGeometry>
        </mxCell>
        <mxCell id="Uqui51nLkP_MbrxXVu64-18" value="" style="endArrow=none;html=1;rounded=0;entryX=0;entryY=0.5;entryDx=0;entryDy=0;exitX=1;exitY=0.5;exitDx=0;exitDy=0;" edge="1" parent="1" source="Uqui51nLkP_MbrxXVu64-11" target="Uqui51nLkP_MbrxXVu64-15">
          <mxGeometry width="50" height="50" relative="1" as="geometry">
            <mxPoint x="780" y="310" as="sourcePoint" />
            <mxPoint x="853" y="316" as="targetPoint" />
          </mxGeometry>
        </mxCell>
        <mxCell id="Uqui51nLkP_MbrxXVu64-19" value="" style="endArrow=none;html=1;rounded=0;entryX=0.433;entryY=0.033;entryDx=0;entryDy=0;exitX=1;exitY=0.5;exitDx=0;exitDy=0;entryPerimeter=0;" edge="1" parent="1" source="Uqui51nLkP_MbrxXVu64-11" target="Uqui51nLkP_MbrxXVu64-16">
          <mxGeometry width="50" height="50" relative="1" as="geometry">
            <mxPoint x="780" y="390" as="sourcePoint" />
            <mxPoint x="850" y="390" as="targetPoint" />
          </mxGeometry>
        </mxCell>
        <mxCell id="Uqui51nLkP_MbrxXVu64-20" value="&lt;u&gt;Ma_HD_BanHang&lt;/u&gt;" style="ellipse;whiteSpace=wrap;html=1;fillColor=#fff2cc;strokeColor=#d6b656;" vertex="1" parent="1">
          <mxGeometry x="380" y="60" width="120" height="60" as="geometry" />
        </mxCell>
        <mxCell id="Uqui51nLkP_MbrxXVu64-21" value="NgayThanhToan" style="ellipse;whiteSpace=wrap;html=1;fillColor=#fff2cc;strokeColor=#d6b656;" vertex="1" parent="1">
          <mxGeometry x="590" y="50" width="120" height="60" as="geometry" />
        </mxCell>
        <mxCell id="Uqui51nLkP_MbrxXVu64-22" value="" style="endArrow=none;html=1;rounded=0;entryX=0;entryY=0;entryDx=0;entryDy=0;exitX=0.5;exitY=1;exitDx=0;exitDy=0;" edge="1" parent="1" source="Uqui51nLkP_MbrxXVu64-20" target="Uqui51nLkP_MbrxXVu64-8">
          <mxGeometry width="50" height="50" relative="1" as="geometry">
            <mxPoint x="377" y="150" as="sourcePoint" />
            <mxPoint x="450" y="221" as="targetPoint" />
          </mxGeometry>
        </mxCell>
        <mxCell id="Uqui51nLkP_MbrxXVu64-23" value="" style="endArrow=none;html=1;rounded=0;exitX=0.5;exitY=1;exitDx=0;exitDy=0;" edge="1" parent="1" source="Uqui51nLkP_MbrxXVu64-21" target="Uqui51nLkP_MbrxXVu64-8">
          <mxGeometry width="50" height="50" relative="1" as="geometry">
            <mxPoint x="480" y="114" as="sourcePoint" />
            <mxPoint x="591" y="230" as="targetPoint" />
          </mxGeometry>
        </mxCell>
        <mxCell id="Uqui51nLkP_MbrxXVu64-26" value="PhuongThucThanhToan" style="ellipse;whiteSpace=wrap;html=1;fillColor=#fff2cc;strokeColor=#d6b656;" vertex="1" parent="1">
          <mxGeometry x="430" y="360" width="130" height="70" as="geometry" />
        </mxCell>
        <mxCell id="Uqui51nLkP_MbrxXVu64-29" value="" style="endArrow=none;html=1;rounded=0;exitX=0.5;exitY=0;exitDx=0;exitDy=0;entryX=0;entryY=1;entryDx=0;entryDy=0;" edge="1" parent="1" source="Uqui51nLkP_MbrxXVu64-26" target="Uqui51nLkP_MbrxXVu64-8">
          <mxGeometry width="50" height="50" relative="1" as="geometry">
            <mxPoint x="560" y="430" as="sourcePoint" />
            <mxPoint x="540" y="310" as="targetPoint" />
          </mxGeometry>
        </mxCell>
        <mxCell id="3CTNfFL0gvCRVIuxKC8a-1" value="SDT_NV" style="ellipse;whiteSpace=wrap;html=1;fillColor=#fff2cc;strokeColor=#d6b656;" vertex="1" parent="1">
          <mxGeometry x="640" y="420" width="120" height="60" as="geometry" />
        </mxCell>
        <mxCell id="3CTNfFL0gvCRVIuxKC8a-2" value="" style="endArrow=none;html=1;rounded=0;entryX=0.5;entryY=0;entryDx=0;entryDy=0;exitX=0.5;exitY=1;exitDx=0;exitDy=0;" edge="1" parent="1" source="Uqui51nLkP_MbrxXVu64-11" target="3CTNfFL0gvCRVIuxKC8a-1">
          <mxGeometry width="50" height="50" relative="1" as="geometry">
            <mxPoint x="780" y="355" as="sourcePoint" />
            <mxPoint x="852" y="432" as="targetPoint" />
          </mxGeometry>
        </mxCell>
      </root>
    </mxGraphModel>
  </diagram>
</mxfile>
